<?xml version="1.0" encoding="UTF-8"?>
<!DOCTYPE svg PUBLIC "-//W3C//DTD SVG 1.1//EN" "http://www.w3.org/Graphics/SVG/1.1/DTD/svg11.dtd">
<svg version="1.1" xmlns="http://www.w3.org/2000/svg" xmlns:xlink="http://www.w3.org/1999/xlink" x="0" y="0" width="272" height="27" viewBox="0, 0, 272, 27">
  <g id="Layer_1">
    <g>
      <path d="M5.434,12.548 Q5.434,11.828 4.983,11.5 Q4.532,11.171 3.518,11.171 L2.305,11.171 L2.305,14.142 L3.588,14.142 Q4.538,14.142 4.986,13.767 Q5.434,13.392 5.434,12.548 z M6.026,16.263 Q6.026,15.437 5.475,15.053 Q4.924,14.669 3.712,14.669 L2.305,14.669 L2.305,17.974 Q3.114,18.009 4.028,18.009 Q5.03,18.009 5.528,17.584 Q6.026,17.16 6.026,16.263 z M0.167,18.501 L0.167,18.191 L1.174,18.033 L1.174,11.107 L0.167,10.955 L0.167,10.644 L3.758,10.644 Q5.253,10.644 5.944,11.086 Q6.635,11.529 6.635,12.49 Q6.635,13.181 6.211,13.667 Q5.786,14.154 5.018,14.318 Q6.079,14.429 6.659,14.936 Q7.239,15.443 7.239,16.24 Q7.239,17.371 6.457,17.954 Q5.674,18.537 4.174,18.537 L1.667,18.501 z" fill="#000000"/>
      <path d="M8.774,13.404 L8.042,13.257 L8.042,12.994 L10.415,12.994 L10.415,13.257 L9.747,13.404 L9.747,15.443 L12.325,15.443 L12.325,13.404 L11.592,13.257 L11.592,12.994 L13.965,12.994 L13.965,13.257 L13.297,13.404 L13.297,18.091 L13.965,18.238 L13.965,18.501 L11.592,18.501 L11.592,18.238 L12.325,18.091 L12.325,15.929 L9.747,15.929 L9.747,18.091 L10.415,18.238 L10.415,18.501 L8.042,18.501 L8.042,18.238 L8.774,18.091 z" fill="#000000"/>
      <path d="M15.389,21.091 Q14.932,21.091 14.486,20.986 L14.486,19.796 L14.762,19.796 L14.955,20.359 Q15.137,20.494 15.459,20.494 Q15.764,20.494 16.022,20.318 Q16.279,20.142 16.493,19.796 Q16.707,19.451 17.029,18.56 L14.932,13.404 L14.369,13.257 L14.369,12.994 L16.924,12.994 L16.924,13.257 L16.057,13.416 L17.545,17.265 L18.986,13.404 L18.125,13.257 L18.125,12.994 L20.176,12.994 L20.176,13.257 L19.602,13.38 L17.451,18.847 Q17.07,19.814 16.789,20.236 Q16.508,20.658 16.168,20.875 Q15.828,21.091 15.389,21.091 z" fill="#000000"/>
      <path d="M25.291,12.994 L25.291,14.564 L24.969,14.564 L24.717,13.591 Q24.066,13.48 23.551,13.48 L23.328,13.48 L23.328,18.091 L24.113,18.238 L24.113,18.501 L21.506,18.501 L21.506,18.238 L22.355,18.091 L22.355,13.48 L22.139,13.48 Q21.623,13.48 20.973,13.591 L20.721,14.564 L20.398,14.564 L20.398,12.994 z" fill="#000000"/>
      <path d="M26.501,13.404 L25.874,13.257 L25.874,12.994 L27.421,12.994 L27.433,13.316 Q27.679,13.105 28.092,12.976 Q28.505,12.847 28.933,12.847 Q29.988,12.847 30.565,13.58 Q31.142,14.312 31.142,15.683 Q31.142,17.083 30.512,17.851 Q29.882,18.619 28.693,18.619 Q28.031,18.619 27.433,18.49 Q27.468,18.912 27.468,19.152 L27.468,20.64 L28.429,20.781 L28.429,21.056 L25.804,21.056 L25.804,20.781 L26.501,20.64 z M30.087,15.683 Q30.087,14.558 29.721,14.01 Q29.355,13.462 28.611,13.462 Q27.925,13.462 27.468,13.656 L27.468,18.056 Q27.99,18.156 28.611,18.156 Q30.087,18.156 30.087,15.683 z" fill="#000000"/>
      <path d="M33.134,15.73 L33.134,15.835 Q33.134,16.644 33.313,17.092 Q33.492,17.541 33.864,17.775 Q34.236,18.009 34.839,18.009 Q35.156,18.009 35.589,17.957 Q36.023,17.904 36.304,17.839 L36.304,18.167 Q36.023,18.349 35.54,18.484 Q35.056,18.619 34.552,18.619 Q33.269,18.619 32.674,17.927 Q32.08,17.236 32.08,15.707 Q32.08,14.265 32.683,13.556 Q33.287,12.847 34.406,12.847 Q36.521,12.847 36.521,15.25 L36.521,15.73 z M34.406,13.316 Q33.796,13.316 33.471,13.808 Q33.146,14.3 33.146,15.261 L35.501,15.261 Q35.501,14.212 35.232,13.764 Q34.962,13.316 34.406,13.316 z" fill="#000000"/>
      <path d="M37.874,13.404 L37.142,13.257 L37.142,12.994 L39.515,12.994 L39.515,13.257 L38.847,13.404 L38.847,15.443 L41.425,15.443 L41.425,13.404 L40.693,13.257 L40.693,12.994 L43.066,12.994 L43.066,13.257 L42.398,13.404 L42.398,18.091 L43.066,18.238 L43.066,18.501 L40.693,18.501 L40.693,18.238 L41.425,18.091 L41.425,15.929 L38.847,15.929 L38.847,18.091 L39.515,18.238 L39.515,18.501 L37.142,18.501 L37.142,18.238 L37.874,18.091 z" fill="#000000"/>
      <path d="M44.272,13.404 L43.54,13.257 L43.54,12.994 L45.913,12.994 L45.913,13.257 L45.245,13.404 L45.245,15.443 L47.823,15.443 L47.823,13.404 L47.09,13.257 L47.09,12.994 L49.463,12.994 L49.463,13.257 L48.796,13.404 L48.796,18.091 L49.463,18.238 L49.463,18.501 L47.09,18.501 L47.09,18.238 L47.823,18.091 L47.823,15.929 L45.245,15.929 L45.245,18.091 L45.913,18.238 L45.913,18.501 L43.54,18.501 L43.54,18.238 L44.272,18.091 z" fill="#000000"/>
      <path d="M50.67,13.404 L49.938,13.257 L49.938,12.994 L52.311,12.994 L52.311,13.257 L51.643,13.404 L51.643,16.867 L54.221,14.078 L54.221,13.404 L53.488,13.257 L53.488,12.994 L55.861,12.994 L55.861,13.257 L55.193,13.404 L55.193,18.091 L55.861,18.238 L55.861,18.501 L53.488,18.501 L53.488,18.238 L54.221,18.091 L54.221,14.74 L51.643,17.529 L51.643,18.091 L52.311,18.238 L52.311,18.501 L49.938,18.501 L49.938,18.238 L50.67,18.091 z" fill="#000000"/>
      <path d="M57.068,13.404 L56.335,13.257 L56.335,12.994 L58.708,12.994 L58.708,13.257 L58.04,13.404 L58.04,16.867 L60.619,14.078 L60.619,13.404 L59.886,13.257 L59.886,12.994 L62.259,12.994 L62.259,13.257 L61.591,13.404 L61.591,18.091 L62.259,18.238 L62.259,18.501 L59.886,18.501 L59.886,18.238 L60.619,18.091 L60.619,14.74 L58.04,17.529 L58.04,18.091 L58.708,18.238 L58.708,18.501 L56.335,18.501 L56.335,18.238 L57.068,18.091 z M59.306,11.927 Q58.234,11.927 57.709,11.541 Q57.185,11.154 57.156,10.287 L58.117,10.287 Q58.152,10.89 58.457,11.201 Q58.761,11.511 59.306,11.511 Q59.851,11.511 60.156,11.201 Q60.46,10.89 60.496,10.287 L61.457,10.287 Q61.427,11.16 60.903,11.543 Q60.378,11.927 59.306,11.927 z" fill="#000000"/>
      <path d="M65.98,13.257 L65.98,12.994 L70.269,12.994 L70.269,13.257 L69.601,13.404 L69.601,18.091 L70.457,18.185 L70.357,20.822 L69.976,20.822 L69.467,18.501 L65.611,18.501 L65.101,20.822 L64.721,20.822 L64.621,18.185 L65.488,18.074 Q65.963,17.171 66.294,15.956 Q66.625,14.74 66.719,13.404 z M66.103,18.015 L68.629,18.015 L68.629,13.404 L67.222,13.404 Q67.146,14.687 66.856,15.885 Q66.566,17.083 66.103,18.015 z" fill="#000000"/>
      <path d="M71.676,13.404 L70.943,13.257 L70.943,12.994 L73.316,12.994 L73.316,13.257 L72.648,13.404 L72.648,16.867 L75.226,14.078 L75.226,13.404 L74.494,13.257 L74.494,12.994 L76.867,12.994 L76.867,13.257 L76.199,13.404 L76.199,18.091 L76.867,18.238 L76.867,18.501 L74.494,18.501 L74.494,18.238 L75.226,18.091 L75.226,14.74 L72.648,17.529 L72.648,18.091 L73.316,18.238 L73.316,18.501 L70.943,18.501 L70.943,18.238 L71.676,18.091 z" fill="#000000"/>
      <path d="M79.849,12.871 Q80.751,12.871 81.176,13.24 Q81.601,13.609 81.601,14.371 L81.601,18.091 L82.286,18.238 L82.286,18.501 L80.775,18.501 L80.663,17.951 Q79.995,18.619 78.958,18.619 Q77.546,18.619 77.546,16.978 Q77.546,16.427 77.76,16.067 Q77.974,15.707 78.443,15.516 Q78.911,15.326 79.802,15.308 L80.628,15.285 L80.628,14.423 Q80.628,13.855 80.42,13.585 Q80.212,13.316 79.779,13.316 Q79.193,13.316 78.706,13.591 L78.507,14.277 L78.179,14.277 L78.179,13.076 Q79.128,12.871 79.849,12.871 z M80.628,15.695 L79.861,15.718 Q79.075,15.748 78.797,16.023 Q78.519,16.298 78.519,16.943 Q78.519,17.974 79.357,17.974 Q79.755,17.974 80.045,17.883 Q80.335,17.792 80.628,17.652 z" fill="#000000"/>
      <path d="M83.388,13.404 L82.714,13.257 L82.714,12.994 L84.665,12.994 L86.247,16.984 L87.864,12.994 L89.751,12.994 L89.751,13.257 L89.083,13.404 L89.083,18.091 L89.751,18.238 L89.751,18.501 L87.495,18.501 L87.495,18.238 L88.11,18.091 L88.11,13.703 L86.165,18.501 L85.849,18.501 L83.95,13.72 L83.95,18.091 L84.501,18.238 L84.501,18.501 L82.714,18.501 L82.714,18.238 L83.388,18.091 z" fill="#000000"/>
      <path d="M91.556,15.73 L91.556,15.835 Q91.556,16.644 91.734,17.092 Q91.913,17.541 92.285,17.775 Q92.657,18.009 93.261,18.009 Q93.577,18.009 94.011,17.957 Q94.444,17.904 94.726,17.839 L94.726,18.167 Q94.444,18.349 93.961,18.484 Q93.477,18.619 92.974,18.619 Q91.69,18.619 91.096,17.927 Q90.501,17.236 90.501,15.707 Q90.501,14.265 91.104,13.556 Q91.708,12.847 92.827,12.847 Q94.942,12.847 94.942,15.25 L94.942,15.73 z M92.827,13.316 Q92.218,13.316 91.893,13.808 Q91.567,14.3 91.567,15.261 L93.923,15.261 Q93.923,14.212 93.653,13.764 Q93.384,13.316 92.827,13.316 z" fill="#000000"/>
      <path d="M100.415,12.994 L100.415,14.564 L100.092,14.564 L99.84,13.591 Q99.19,13.48 98.674,13.48 L98.452,13.48 L98.452,18.091 L99.237,18.238 L99.237,18.501 L96.63,18.501 L96.63,18.238 L97.479,18.091 L97.479,13.48 L97.262,13.48 Q96.747,13.48 96.096,13.591 L95.844,14.564 L95.522,14.564 L95.522,12.994 z" fill="#000000"/>
      <path d="M101.625,13.404 L100.998,13.257 L100.998,12.994 L102.545,12.994 L102.557,13.316 Q102.803,13.105 103.216,12.976 Q103.629,12.847 104.057,12.847 Q105.111,12.847 105.689,13.58 Q106.266,14.312 106.266,15.683 Q106.266,17.083 105.636,17.851 Q105.006,18.619 103.817,18.619 Q103.154,18.619 102.557,18.49 Q102.592,18.912 102.592,19.152 L102.592,20.64 L103.553,20.781 L103.553,21.056 L100.928,21.056 L100.928,20.781 L101.625,20.64 z M105.211,15.683 Q105.211,14.558 104.845,14.01 Q104.479,13.462 103.734,13.462 Q103.049,13.462 102.592,13.656 L102.592,18.056 Q103.113,18.156 103.734,18.156 Q105.211,18.156 105.211,15.683 z" fill="#000000"/>
      <path d="M113.589,12.994 L113.589,14.564 L113.267,14.564 L113.015,13.591 Q112.365,13.48 111.849,13.48 L111.626,13.48 L111.626,18.091 L112.412,18.238 L112.412,18.501 L109.804,18.501 L109.804,18.238 L110.654,18.091 L110.654,13.48 L110.437,13.48 Q109.921,13.48 109.271,13.591 L109.019,14.564 L108.697,14.564 L108.697,12.994 z" fill="#000000"/>
      <path d="M114.8,13.404 L114.173,13.257 L114.173,12.994 L115.72,12.994 L115.731,13.316 Q115.977,13.105 116.39,12.976 Q116.804,12.847 117.231,12.847 Q118.286,12.847 118.863,13.58 Q119.44,14.312 119.44,15.683 Q119.44,17.083 118.81,17.851 Q118.181,18.619 116.991,18.619 Q116.329,18.619 115.731,18.49 Q115.766,18.912 115.766,19.152 L115.766,20.64 L116.727,20.781 L116.727,21.056 L114.102,21.056 L114.102,20.781 L114.8,20.64 z M118.386,15.683 Q118.386,14.558 118.019,14.01 Q117.653,13.462 116.909,13.462 Q116.223,13.462 115.766,13.656 L115.766,18.056 Q116.288,18.156 116.909,18.156 Q118.386,18.156 118.386,15.683 z" fill="#000000"/>
      <path d="M120.871,21.091 Q120.414,21.091 119.969,20.986 L119.969,19.796 L120.244,19.796 L120.437,20.359 Q120.619,20.494 120.941,20.494 Q121.246,20.494 121.504,20.318 Q121.762,20.142 121.976,19.796 Q122.189,19.451 122.512,18.56 L120.414,13.404 L119.852,13.257 L119.852,12.994 L122.406,12.994 L122.406,13.257 L121.539,13.416 L123.027,17.265 L124.469,13.404 L123.607,13.257 L123.607,12.994 L125.658,12.994 L125.658,13.257 L125.084,13.38 L122.934,18.847 Q122.553,19.814 122.271,20.236 Q121.99,20.658 121.65,20.875 Q121.311,21.091 120.871,21.091 z" fill="#000000"/>
      <path d="M126.064,15.115 Q126.064,13.503 126.33,12.563 Q126.597,11.623 127.177,11.101 Q127.757,10.58 128.694,10.468 Q129.696,10.357 129.966,10.295 Q130.235,10.234 130.411,10.146 Q130.587,10.058 130.657,9.912 L130.95,9.912 Q130.933,10.375 130.786,10.635 Q130.64,10.896 130.356,11.042 Q130.071,11.189 129.649,11.253 Q129.228,11.318 128.659,11.388 Q127.903,11.482 127.525,11.702 Q127.148,11.921 126.978,12.358 Q126.808,12.794 126.743,14.048 L126.784,14.048 Q126.989,13.474 127.493,13.161 Q127.997,12.847 128.653,12.847 Q129.896,12.847 130.523,13.577 Q131.149,14.306 131.149,15.718 Q131.149,18.619 128.571,18.619 Q126.064,18.619 126.064,15.115 z M130.095,15.718 Q130.095,14.453 129.726,13.884 Q129.357,13.316 128.571,13.316 Q127.804,13.316 127.461,13.861 Q127.118,14.406 127.118,15.718 Q127.118,18.156 128.571,18.156 Q129.345,18.156 129.72,17.582 Q130.095,17.007 130.095,15.718 z" fill="#000000"/>
      <path d="M132.556,13.404 L131.823,13.257 L131.823,12.994 L134.196,12.994 L134.196,13.257 L133.528,13.404 L133.528,15.841 L135.778,13.416 L135.204,13.257 L135.204,12.994 L137.149,12.994 L137.149,13.257 L136.464,13.392 L134.894,14.998 L136.909,18.103 L137.448,18.238 L137.448,18.501 L135.251,18.501 L135.251,18.238 L135.755,18.091 L134.243,15.718 L133.528,16.328 L133.528,18.091 L134.196,18.238 L134.196,18.501 L131.823,18.501 L131.823,18.238 L132.556,18.091 z" fill="#000000"/>
      <path d="M138.362,13.404 L137.629,13.257 L137.629,12.994 L140.002,12.994 L140.002,13.257 L139.334,13.404 L139.334,16.867 L141.913,14.078 L141.913,13.404 L141.18,13.257 L141.18,12.994 L143.553,12.994 L143.553,13.257 L142.885,13.404 L142.885,18.091 L143.553,18.238 L143.553,18.501 L141.18,18.501 L141.18,18.238 L141.913,18.091 L141.913,14.74 L139.334,17.529 L139.334,18.091 L140.002,18.238 L140.002,18.501 L137.629,18.501 L137.629,18.238 L138.362,18.091 z" fill="#000000"/>
      <path d="M148.378,20.895 L148.378,21.182 Q146.029,19.213 146.029,14.596 Q146.029,9.926 148.378,7.999 L148.378,8.297 Q146.667,9.985 146.667,14.596 Q146.667,19.254 148.378,20.895 z" fill="#000000"/>
      <path d="M150.77,13.404 L150.096,13.257 L150.096,12.994 L152.047,12.994 L153.629,16.984 L155.247,12.994 L157.133,12.994 L157.133,13.257 L156.465,13.404 L156.465,18.091 L157.133,18.238 L157.133,18.501 L154.878,18.501 L154.878,18.238 L155.493,18.091 L155.493,13.703 L153.547,18.501 L153.231,18.501 L151.333,13.72 L151.333,18.091 L151.883,18.238 L151.883,18.501 L150.096,18.501 L150.096,18.238 L150.77,18.091 z" fill="#000000"/>
      <path d="M158.364,13.404 L157.69,13.257 L157.69,12.994 L159.641,12.994 L161.223,16.984 L162.84,12.994 L164.727,12.994 L164.727,13.257 L164.059,13.404 L164.059,18.091 L164.727,18.238 L164.727,18.501 L162.471,18.501 L162.471,18.238 L163.087,18.091 L163.087,13.703 L161.141,18.501 L160.825,18.501 L158.926,13.72 L158.926,18.091 L159.477,18.238 L159.477,18.501 L157.69,18.501 L157.69,18.238 L158.364,18.091 z" fill="#000000"/>
      <path d="M166.442,21.188 Q168.158,19.536 168.158,14.889 Q168.158,10.307 166.442,8.59 L166.442,8.292 Q167.725,9.311 168.311,11.303 Q168.791,12.874 168.791,14.889 Q168.791,19.565 166.442,21.475 z" fill="#000000"/>
      <path d="M170.816,16.785 L170.816,16.041 L177.753,16.041 L177.753,16.785 z M170.816,13.867 L170.816,13.111 L177.753,13.111 L177.753,13.867 z" fill="#000000"/>
      <path d="M186.334,4.848 Q186.334,4.128 185.883,3.8 Q185.432,3.471 184.418,3.471 L183.205,3.471 L183.205,6.442 L184.488,6.442 Q185.438,6.442 185.886,6.067 Q186.334,5.692 186.334,4.848 z M186.926,8.563 Q186.926,7.737 186.375,7.353 Q185.824,6.969 184.612,6.969 L183.205,6.969 L183.205,10.274 Q184.014,10.309 184.928,10.309 Q185.93,10.309 186.428,9.884 Q186.926,9.46 186.926,8.563 z M181.067,10.801 L181.067,10.491 L182.074,10.333 L182.074,3.407 L181.067,3.255 L181.067,2.944 L184.658,2.944 Q186.153,2.944 186.844,3.386 Q187.535,3.829 187.535,4.79 Q187.535,5.481 187.111,5.967 Q186.686,6.454 185.918,6.618 Q186.979,6.729 187.559,7.236 Q188.139,7.743 188.139,8.54 Q188.139,9.671 187.357,10.254 Q186.574,10.837 185.074,10.837 L182.567,10.801 z" fill="#000000"/>
      <path d="M194.268,8.018 Q194.268,10.919 191.69,10.919 Q190.447,10.919 189.815,10.175 Q189.182,9.43 189.182,8.018 Q189.182,6.624 189.815,5.885 Q190.447,5.147 191.737,5.147 Q192.99,5.147 193.629,5.871 Q194.268,6.594 194.268,8.018 z M193.213,8.018 Q193.213,6.753 192.844,6.184 Q192.475,5.616 191.69,5.616 Q190.922,5.616 190.579,6.161 Q190.237,6.706 190.237,8.018 Q190.237,9.348 190.585,9.902 Q190.934,10.456 191.69,10.456 Q192.463,10.456 192.838,9.882 Q193.213,9.307 193.213,8.018 z" fill="#000000"/>
      <path d="M197.918,7.954 Q198.416,8.036 198.738,8.367 Q199.061,8.698 199.061,9.149 Q199.061,10.919 196.623,10.919 Q196.19,10.919 195.718,10.796 Q195.246,10.673 195.065,10.503 L195.065,10.151 Q195.604,10.309 196.36,10.309 Q197.174,10.309 197.59,10.04 Q198.006,9.77 198.006,9.173 Q198.006,8.727 197.678,8.467 Q197.35,8.206 196.822,8.206 L196.119,8.206 L196.119,7.719 L196.828,7.719 Q197.332,7.719 197.628,7.45 Q197.924,7.18 197.924,6.7 Q197.924,6.167 197.663,5.891 Q197.403,5.616 196.781,5.616 Q196.541,5.616 196.283,5.692 Q196.026,5.768 195.856,5.891 L195.645,6.688 L195.322,6.688 L195.322,5.329 Q196.172,5.147 196.822,5.147 Q197.93,5.147 198.434,5.505 Q198.938,5.862 198.938,6.624 Q198.938,7.098 198.656,7.424 Q198.375,7.749 197.918,7.919 z" fill="#000000"/>
      <path d="M200.32,5.704 L199.693,5.557 L199.693,5.294 L201.24,5.294 L201.251,5.616 Q201.497,5.405 201.91,5.276 Q202.324,5.147 202.751,5.147 Q203.806,5.147 204.383,5.88 Q204.96,6.612 204.96,7.983 Q204.96,9.383 204.33,10.151 Q203.701,10.919 202.511,10.919 Q201.849,10.919 201.251,10.79 Q201.286,11.212 201.286,11.452 L201.286,12.94 L202.247,13.081 L202.247,13.356 L199.622,13.356 L199.622,13.081 L200.32,12.94 z M203.906,7.983 Q203.906,6.858 203.539,6.31 Q203.173,5.762 202.429,5.762 Q201.743,5.762 201.286,5.956 L201.286,10.356 Q201.808,10.456 202.429,10.456 Q203.906,10.456 203.906,7.983 z" fill="#000000"/>
      <path d="M208.154,5.171 Q209.056,5.171 209.481,5.54 Q209.906,5.909 209.906,6.671 L209.906,10.391 L210.591,10.538 L210.591,10.801 L209.079,10.801 L208.968,10.251 Q208.3,10.919 207.263,10.919 Q205.851,10.919 205.851,9.278 Q205.851,8.727 206.065,8.367 Q206.279,8.007 206.747,7.816 Q207.216,7.626 208.107,7.608 L208.933,7.585 L208.933,6.723 Q208.933,6.155 208.725,5.885 Q208.517,5.616 208.083,5.616 Q207.497,5.616 207.011,5.891 L206.812,6.577 L206.484,6.577 L206.484,5.376 Q207.433,5.171 208.154,5.171 z M208.933,7.995 L208.165,8.018 Q207.38,8.048 207.102,8.323 Q206.824,8.598 206.824,9.243 Q206.824,10.274 207.661,10.274 Q208.06,10.274 208.35,10.183 Q208.64,10.092 208.933,9.952 z" fill="#000000"/>
      <path d="M215.7,10.467 Q215.413,10.678 214.909,10.799 Q214.405,10.919 213.878,10.919 Q211.2,10.919 211.2,8.007 Q211.2,6.63 211.883,5.888 Q212.565,5.147 213.837,5.147 Q214.628,5.147 215.565,5.329 L215.565,6.864 L215.243,6.864 L214.991,5.891 Q214.505,5.616 213.825,5.616 Q212.255,5.616 212.255,8.007 Q212.255,9.249 212.732,9.779 Q213.21,10.309 214.212,10.309 Q215.067,10.309 215.7,10.116 z" fill="#000000"/>
      <path d="M221.126,5.294 L221.126,6.864 L220.803,6.864 L220.552,5.891 Q219.901,5.78 219.386,5.78 L219.163,5.78 L219.163,10.391 L219.948,10.538 L219.948,10.801 L217.341,10.801 L217.341,10.538 L218.19,10.391 L218.19,5.78 L217.973,5.78 Q217.458,5.78 216.807,5.891 L216.555,6.864 L216.233,6.864 L216.233,5.294 z" fill="#000000"/>
      <path d="M225.878,13.195 L225.878,13.482 Q223.529,11.513 223.529,6.896 Q223.529,2.226 225.878,0.299 L225.878,0.597 Q224.167,2.285 224.167,6.896 Q224.167,11.554 225.878,13.195 z" fill="#000000"/>
      <path d="M232.032,6.864 L231.71,6.864 L231.458,5.891 Q230.808,5.78 230.292,5.78 L229.343,5.78 L229.343,10.391 L230.245,10.538 L230.245,10.801 L227.638,10.801 L227.638,10.538 L228.37,10.391 L228.37,5.704 L227.638,5.557 L227.638,5.294 L232.032,5.294 z" fill="#000000"/>
      <path d="M237.562,8.018 Q237.562,10.919 234.984,10.919 Q233.741,10.919 233.109,10.175 Q232.476,9.43 232.476,8.018 Q232.476,6.624 233.109,5.885 Q233.741,5.147 235.03,5.147 Q236.284,5.147 236.923,5.871 Q237.562,6.594 237.562,8.018 z M236.507,8.018 Q236.507,6.753 236.138,6.184 Q235.769,5.616 234.984,5.616 Q234.216,5.616 233.873,6.161 Q233.53,6.706 233.53,8.018 Q233.53,9.348 233.879,9.902 Q234.228,10.456 234.984,10.456 Q235.757,10.456 236.132,9.882 Q236.507,9.307 236.507,8.018 z" fill="#000000"/>
      <path d="M238.982,5.557 L238.982,5.294 L243.271,5.294 L243.271,5.557 L242.603,5.704 L242.603,10.391 L243.459,10.485 L243.359,13.122 L242.978,13.122 L242.468,10.801 L238.613,10.801 L238.103,13.122 L237.722,13.122 L237.623,10.485 L238.49,10.374 Q238.965,9.471 239.296,8.256 Q239.627,7.04 239.72,5.704 z M239.105,10.315 L241.631,10.315 L241.631,5.704 L240.224,5.704 Q240.148,6.987 239.858,8.185 Q239.568,9.383 239.105,10.315 z" fill="#000000"/>
      <path d="M246.242,10.333 Q247.086,10.333 247.434,10.066 Q247.783,9.8 247.783,9.231 Q247.783,8.675 247.437,8.437 Q247.092,8.2 246.242,8.2 L245.65,8.2 L245.65,10.333 z M246.383,5.294 L246.383,5.557 L245.65,5.704 L245.65,7.731 L246.347,7.731 Q247.625,7.731 248.231,8.077 Q248.838,8.423 248.838,9.202 Q248.838,10.075 248.258,10.438 Q247.677,10.801 246.33,10.801 L243.945,10.801 L243.945,10.538 L244.677,10.391 L244.677,5.704 L243.945,5.557 L243.945,5.294 z M249.869,5.704 L249.136,5.557 L249.136,5.294 L251.509,5.294 L251.509,5.557 L250.842,5.704 L250.842,10.391 L251.509,10.538 L251.509,10.801 L249.136,10.801 L249.136,10.538 L249.869,10.391 z" fill="#000000"/>
      <path d="M253.342,13.488 Q255.058,11.836 255.058,7.189 Q255.058,2.607 253.342,0.89 L253.342,0.592 Q254.625,1.611 255.211,3.603 Q255.691,5.174 255.691,7.189 Q255.691,11.865 253.342,13.775 z" fill="#000000"/>
      <path d="M179.921,15.401 L256.821,15.401 L256.821,14.801 L179.921,14.801 z" fill="#000000"/>
      <path d="M220.167,24.973 L220.167,26.701 L219.159,26.701 L219.159,24.973 L215.655,24.973 L215.655,24.194 L219.493,18.803 L220.167,18.803 L220.167,24.135 L221.233,24.135 L221.233,24.973 z M219.159,20.18 L219.13,20.18 L216.317,24.135 L219.159,24.135 z" fill="#000000"/>
      <path d="M261.021,17.828 L261.021,15.478 L258.695,15.478 L258.695,14.494 L261.021,14.494 L261.021,12.156 L262.017,12.156 L262.017,14.494 L264.355,14.494 L264.355,15.478 L262.017,15.478 L262.017,17.828 z" fill="#000000"/>
      <path d="M270.767,16.773 L270.767,18.501 L269.759,18.501 L269.759,16.773 L266.255,16.773 L266.255,15.994 L270.093,10.603 L270.767,10.603 L270.767,15.935 L271.833,15.935 L271.833,16.773 z M269.759,11.98 L269.73,11.98 L266.917,15.935 L269.759,15.935 z" fill="#000000"/>
    </g>
  </g>
</svg>
