<?xml version="1.0" encoding="UTF-8"?>
<!DOCTYPE svg PUBLIC "-//W3C//DTD SVG 1.1//EN" "http://www.w3.org/Graphics/SVG/1.1/DTD/svg11.dtd">
<svg version="1.1" xmlns="http://www.w3.org/2000/svg" xmlns:xlink="http://www.w3.org/1999/xlink" x="0" y="0" width="324" height="32" viewBox="0, 0, 324, 32">
  <g id="Layer_1">
    <path d="M1.273,21.9 L1.273,21.589 L2.281,21.431 L2.281,14.505 L1.273,14.353 L1.273,14.043 L9.242,14.043 L9.242,14.353 L8.234,14.505 L8.234,21.431 L9.242,21.589 L9.242,21.9 L6.101,21.9 L6.101,21.589 L7.109,21.431 L7.109,14.57 L3.412,14.57 L3.412,21.431 L4.419,21.589 L4.419,21.9 z" fill="#000000"/>
    <path d="M10.467,21.396 Q10.725,21.396 10.944,20.681 Q11.164,19.966 11.416,18.355 L11.662,16.802 L10.895,16.656 L10.895,16.392 L15.324,16.392 L15.324,16.656 L14.656,16.802 L14.656,21.49 L15.324,21.636 L15.324,21.9 L12.951,21.9 L12.951,21.636 L13.684,21.49 L13.684,16.879 L12.189,16.879 L11.937,18.513 Q11.674,20.212 11.489,20.819 Q11.305,21.425 11.035,21.721 Q10.766,22.017 10.367,22.017 Q10.174,22.017 10.013,21.956 Q9.852,21.894 9.77,21.824 L9.734,20.869 L9.998,20.869 L10.18,21.179 Q10.215,21.244 10.294,21.32 Q10.373,21.396 10.467,21.396 z" fill="#000000"/>
    <path d="M21.148,19.117 Q21.148,22.017 18.57,22.017 Q17.328,22.017 16.695,21.273 Q16.062,20.529 16.062,19.117 Q16.062,17.722 16.695,16.984 Q17.328,16.246 18.617,16.246 Q19.871,16.246 20.51,16.969 Q21.148,17.693 21.148,19.117 z M20.094,19.117 Q20.094,17.851 19.725,17.283 Q19.355,16.714 18.57,16.714 Q17.803,16.714 17.46,17.259 Q17.117,17.804 17.117,19.117 Q17.117,20.447 17.466,21.001 Q17.814,21.554 18.57,21.554 Q19.344,21.554 19.719,20.98 Q20.094,20.406 20.094,19.117 z" fill="#000000"/>
    <path d="M21.811,21.9 L21.811,21.636 L22.543,21.49 L22.543,16.802 L21.811,16.656 L21.811,16.392 L24.184,16.392 L24.184,16.656 L23.516,16.802 L23.516,21.414 L25.73,21.414 L25.73,16.802 L24.998,16.656 L24.998,16.392 L27.371,16.392 L27.371,16.656 L26.703,16.802 L26.703,21.414 L28.912,21.414 L28.912,16.802 L28.18,16.656 L28.18,16.392 L30.553,16.392 L30.553,16.656 L29.885,16.802 L29.885,21.49 L30.564,21.584 L30.465,24.396 L30.084,24.396 L29.516,21.9 z" fill="#000000"/>
    <path d="M33.534,16.269 Q34.437,16.269 34.861,16.638 Q35.286,17.007 35.286,17.769 L35.286,21.49 L35.972,21.636 L35.972,21.9 L34.46,21.9 L34.349,21.349 Q33.681,22.017 32.644,22.017 Q31.232,22.017 31.232,20.377 Q31.232,19.826 31.445,19.465 Q31.659,19.105 32.128,18.915 Q32.597,18.724 33.487,18.707 L34.314,18.683 L34.314,17.822 Q34.314,17.254 34.106,16.984 Q33.898,16.714 33.464,16.714 Q32.878,16.714 32.392,16.99 L32.192,17.675 L31.864,17.675 L31.864,16.474 Q32.814,16.269 33.534,16.269 z M34.314,19.093 L33.546,19.117 Q32.761,19.146 32.483,19.421 Q32.204,19.697 32.204,20.341 Q32.204,21.373 33.042,21.373 Q33.441,21.373 33.731,21.282 Q34.021,21.191 34.314,21.05 z" fill="#000000"/>
    <path d="M37.483,16.656 L37.483,16.392 L41.772,16.392 L41.772,16.656 L41.104,16.802 L41.104,21.49 L41.96,21.584 L41.86,24.22 L41.479,24.22 L40.97,21.9 L37.114,21.9 L36.604,24.22 L36.223,24.22 L36.124,21.584 L36.991,21.472 Q37.466,20.57 37.797,19.354 Q38.128,18.138 38.222,16.802 z M37.606,21.414 L40.132,21.414 L40.132,16.802 L38.725,16.802 Q38.649,18.086 38.359,19.284 Q38.069,20.482 37.606,21.414 z" fill="#000000"/>
    <path d="M44.743,21.431 Q45.587,21.431 45.935,21.165 Q46.284,20.898 46.284,20.33 Q46.284,19.773 45.938,19.536 Q45.593,19.298 44.743,19.298 L44.151,19.298 L44.151,21.431 z M44.884,16.392 L44.884,16.656 L44.151,16.802 L44.151,18.83 L44.848,18.83 Q46.126,18.83 46.732,19.175 Q47.339,19.521 47.339,20.3 Q47.339,21.173 46.759,21.537 Q46.179,21.9 44.831,21.9 L42.446,21.9 L42.446,21.636 L43.179,21.49 L43.179,16.802 L42.446,16.656 L42.446,16.392 z" fill="#000000"/>
    <path d="M50.376,16.802 L49.644,16.656 L49.644,16.392 L55.568,16.392 L55.568,16.656 L54.9,16.802 L54.9,21.49 L55.568,21.636 L55.568,21.9 L53.195,21.9 L53.195,21.636 L53.927,21.49 L53.927,16.879 L51.349,16.879 L51.349,21.49 L52.017,21.636 L52.017,21.9 L49.644,21.9 L49.644,21.636 L50.376,21.49 z" fill="#000000"/>
    <path d="M61.368,19.117 Q61.368,22.017 58.79,22.017 Q57.548,22.017 56.915,21.273 Q56.282,20.529 56.282,19.117 Q56.282,17.722 56.915,16.984 Q57.548,16.246 58.837,16.246 Q60.091,16.246 60.729,16.969 Q61.368,17.693 61.368,19.117 z M60.313,19.117 Q60.313,17.851 59.944,17.283 Q59.575,16.714 58.79,16.714 Q58.022,16.714 57.68,17.259 Q57.337,17.804 57.337,19.117 Q57.337,20.447 57.685,21.001 Q58.034,21.554 58.79,21.554 Q59.563,21.554 59.938,20.98 Q60.313,20.406 60.313,19.117 z" fill="#000000"/>
    <path d="M62.042,21.9 L62.042,21.636 L62.774,21.49 L62.774,16.802 L62.042,16.656 L62.042,16.392 L64.397,16.392 Q65.692,16.392 66.228,16.714 Q66.764,17.037 66.764,17.722 Q66.764,18.285 66.445,18.589 Q66.126,18.894 65.54,19.029 L65.54,19.076 Q66.284,19.158 66.682,19.457 Q67.081,19.755 67.081,20.353 Q67.081,21.179 66.48,21.54 Q65.88,21.9 64.532,21.9 z M64.444,21.431 Q65.311,21.431 65.669,21.173 Q66.026,20.916 66.026,20.33 Q66.026,19.773 65.648,19.536 Q65.27,19.298 64.368,19.298 L63.747,19.298 L63.747,21.431 z M63.747,18.83 L64.368,18.83 Q65.071,18.83 65.39,18.595 Q65.71,18.361 65.71,17.798 Q65.71,17.324 65.385,17.092 Q65.059,16.861 64.345,16.861 L63.747,16.861 z" fill="#000000"/>
    <path d="M68.954,19.129 L68.954,19.234 Q68.954,20.043 69.133,20.491 Q69.312,20.939 69.684,21.173 Q70.056,21.408 70.66,21.408 Q70.976,21.408 71.41,21.355 Q71.843,21.302 72.124,21.238 L72.124,21.566 Q71.843,21.748 71.36,21.882 Q70.876,22.017 70.372,22.017 Q69.089,22.017 68.495,21.326 Q67.9,20.634 67.9,19.105 Q67.9,17.664 68.503,16.955 Q69.107,16.246 70.226,16.246 Q72.341,16.246 72.341,18.648 L72.341,19.129 z M70.226,16.714 Q69.617,16.714 69.291,17.207 Q68.966,17.699 68.966,18.66 L71.322,18.66 Q71.322,17.611 71.052,17.163 Q70.783,16.714 70.226,16.714 z" fill="#000000"/>
    <path d="M73.636,16.802 L73.009,16.656 L73.009,16.392 L74.556,16.392 L74.567,16.714 Q74.814,16.504 75.227,16.375 Q75.64,16.246 76.067,16.246 Q77.122,16.246 77.699,16.978 Q78.276,17.711 78.276,19.082 Q78.276,20.482 77.647,21.25 Q77.017,22.017 75.827,22.017 Q75.165,22.017 74.567,21.888 Q74.603,22.31 74.603,22.55 L74.603,24.039 L75.564,24.179 L75.564,24.455 L72.939,24.455 L72.939,24.179 L73.636,24.039 z M77.222,19.082 Q77.222,17.957 76.856,17.409 Q76.489,16.861 75.745,16.861 Q75.06,16.861 74.603,17.054 L74.603,21.455 Q75.124,21.554 75.745,21.554 Q77.222,21.554 77.222,19.082 z" fill="#000000"/>
    <path d="M84.599,21.636 L84.599,21.9 L82.103,21.9 L82.103,21.636 L82.835,21.502 L81.564,19.55 L80.075,21.513 L80.831,21.636 L80.831,21.9 L78.851,21.9 L78.851,21.636 L79.489,21.543 L81.3,19.152 L79.706,16.802 L79.056,16.656 L79.056,16.392 L81.552,16.392 L81.552,16.656 L80.819,16.814 L81.88,18.396 L83.099,16.802 L82.343,16.656 L82.343,16.392 L84.323,16.392 L84.323,16.656 L83.691,16.779 L82.144,18.783 L83.954,21.513 z" fill="#000000"/>
    <path d="M85.694,16.802 L84.962,16.656 L84.962,16.392 L87.335,16.392 L87.335,16.656 L86.667,16.802 L86.667,18.841 L89.245,18.841 L89.245,16.802 L88.513,16.656 L88.513,16.392 L90.886,16.392 L90.886,16.656 L90.218,16.802 L90.218,21.49 L90.886,21.636 L90.886,21.9 L88.513,21.9 L88.513,21.636 L89.245,21.49 L89.245,19.328 L86.667,19.328 L86.667,21.49 L87.335,21.636 L87.335,21.9 L84.962,21.9 L84.962,21.636 L85.694,21.49 z" fill="#000000"/>
    <path d="M96.686,19.117 Q96.686,22.017 94.108,22.017 Q92.866,22.017 92.233,21.273 Q91.6,20.529 91.6,19.117 Q91.6,17.722 92.233,16.984 Q92.866,16.246 94.155,16.246 Q95.409,16.246 96.047,16.969 Q96.686,17.693 96.686,19.117 z M95.631,19.117 Q95.631,17.851 95.262,17.283 Q94.893,16.714 94.108,16.714 Q93.34,16.714 92.998,17.259 Q92.655,17.804 92.655,19.117 Q92.655,20.447 93.003,21.001 Q93.352,21.554 94.108,21.554 Q94.881,21.554 95.256,20.98 Q95.631,20.406 95.631,19.117 z" fill="#000000"/>
    <path d="M102.388,21.566 Q102.101,21.777 101.597,21.897 Q101.093,22.017 100.566,22.017 Q97.888,22.017 97.888,19.105 Q97.888,17.728 98.571,16.987 Q99.253,16.246 100.525,16.246 Q101.316,16.246 102.253,16.427 L102.253,17.962 L101.931,17.962 L101.679,16.99 Q101.193,16.714 100.513,16.714 Q98.943,16.714 98.943,19.105 Q98.943,20.347 99.42,20.878 Q99.898,21.408 100.9,21.408 Q101.755,21.408 102.388,21.214 z" fill="#000000"/>
    <path d="M107.814,16.392 L107.814,17.962 L107.491,17.962 L107.239,16.99 Q106.589,16.879 106.073,16.879 L105.851,16.879 L105.851,21.49 L106.636,21.636 L106.636,21.9 L104.028,21.9 L104.028,21.636 L104.878,21.49 L104.878,16.879 L104.661,16.879 Q104.146,16.879 103.495,16.99 L103.243,17.962 L102.921,17.962 L102.921,16.392 z" fill="#000000"/>
    <path d="M108.891,16.802 L108.158,16.656 L108.158,16.392 L110.531,16.392 L110.531,16.656 L109.863,16.802 L109.863,20.265 L112.441,17.476 L112.441,16.802 L111.709,16.656 L111.709,16.392 L114.082,16.392 L114.082,16.656 L113.414,16.802 L113.414,21.49 L114.082,21.636 L114.082,21.9 L111.709,21.9 L111.709,21.636 L112.441,21.49 L112.441,18.138 L109.863,20.927 L109.863,21.49 L110.531,21.636 L110.531,21.9 L108.158,21.9 L108.158,21.636 L108.891,21.49 z" fill="#000000"/>
    <path d="M121.396,16.392 L121.396,17.962 L121.073,17.962 L120.821,16.99 Q120.171,16.879 119.655,16.879 L119.433,16.879 L119.433,21.49 L120.218,21.636 L120.218,21.9 L117.61,21.9 L117.61,21.636 L118.46,21.49 L118.46,16.879 L118.243,16.879 Q117.728,16.879 117.077,16.99 L116.825,17.962 L116.503,17.962 L116.503,16.392 z" fill="#000000"/>
    <path d="M123.047,19.129 L123.047,19.234 Q123.047,20.043 123.225,20.491 Q123.404,20.939 123.776,21.173 Q124.148,21.408 124.752,21.408 Q125.068,21.408 125.502,21.355 Q125.935,21.302 126.217,21.238 L126.217,21.566 Q125.935,21.748 125.452,21.882 Q124.969,22.017 124.465,22.017 Q123.181,22.017 122.587,21.326 Q121.992,20.634 121.992,19.105 Q121.992,17.664 122.596,16.955 Q123.199,16.246 124.318,16.246 Q126.433,16.246 126.433,18.648 L126.433,19.129 z M124.318,16.714 Q123.709,16.714 123.384,17.207 Q123.058,17.699 123.058,18.66 L125.414,18.66 Q125.414,17.611 125.144,17.163 Q124.875,16.714 124.318,16.714 z" fill="#000000"/>
    <path d="M127.687,21.396 Q127.945,21.396 128.165,20.681 Q128.384,19.966 128.636,18.355 L128.882,16.802 L128.115,16.656 L128.115,16.392 L132.544,16.392 L132.544,16.656 L131.877,16.802 L131.877,21.49 L132.544,21.636 L132.544,21.9 L130.171,21.9 L130.171,21.636 L130.904,21.49 L130.904,16.879 L129.41,16.879 L129.158,18.513 Q128.894,20.212 128.71,20.819 Q128.525,21.425 128.255,21.721 Q127.986,22.017 127.587,22.017 Q127.394,22.017 127.233,21.956 Q127.072,21.894 126.99,21.824 L126.955,20.869 L127.218,20.869 L127.4,21.179 Q127.435,21.244 127.514,21.32 Q127.593,21.396 127.687,21.396 z" fill="#000000"/>
    <path d="M135.55,16.269 Q136.453,16.269 136.878,16.638 Q137.302,17.007 137.302,17.769 L137.302,21.49 L137.988,21.636 L137.988,21.9 L136.476,21.9 L136.365,21.349 Q135.697,22.017 134.66,22.017 Q133.248,22.017 133.248,20.377 Q133.248,19.826 133.461,19.465 Q133.675,19.105 134.144,18.915 Q134.613,18.724 135.503,18.707 L136.33,18.683 L136.33,17.822 Q136.33,17.254 136.122,16.984 Q135.914,16.714 135.48,16.714 Q134.894,16.714 134.408,16.99 L134.209,17.675 L133.88,17.675 L133.88,16.474 Q134.83,16.269 135.55,16.269 z M136.33,19.093 L135.562,19.117 Q134.777,19.146 134.499,19.421 Q134.22,19.697 134.22,20.341 Q134.22,21.373 135.058,21.373 Q135.457,21.373 135.747,21.282 Q136.037,21.191 136.33,21.05 z" fill="#000000"/>
    <path d="M142.785,24.294 L142.785,24.581 Q140.435,22.612 140.435,17.995 Q140.435,13.325 142.785,11.397 L142.785,11.696 Q141.074,13.383 141.074,17.995 Q141.074,22.653 142.785,24.294 z" fill="#000000"/>
    <path d="M145.176,16.802 L144.503,16.656 L144.503,16.392 L146.454,16.392 L148.036,20.382 L149.653,16.392 L151.54,16.392 L151.54,16.656 L150.872,16.802 L150.872,21.49 L151.54,21.636 L151.54,21.9 L149.284,21.9 L149.284,21.636 L149.899,21.49 L149.899,17.101 L147.954,21.9 L147.637,21.9 L145.739,17.119 L145.739,21.49 L146.29,21.636 L146.29,21.9 L144.503,21.9 L144.503,21.636 L145.176,21.49 z" fill="#000000"/>
    <path d="M155.33,15.9 L152.444,15.9 L152.444,15.383 L153.097,14.789 Q153.727,14.237 154.022,13.896 Q154.317,13.555 154.446,13.193 Q154.574,12.831 154.574,12.363 Q154.574,11.906 154.367,11.667 Q154.159,11.428 153.688,11.428 Q153.502,11.428 153.305,11.479 Q153.108,11.53 152.957,11.614 L152.834,12.191 L152.602,12.191 L152.602,11.284 Q153.242,11.133 153.688,11.133 Q154.462,11.133 154.85,11.454 Q155.238,11.776 155.238,12.363 Q155.238,12.757 155.086,13.107 Q154.933,13.457 154.616,13.803 Q154.3,14.149 153.569,14.771 Q153.256,15.039 152.904,15.359 L155.33,15.359 z" fill="#000000"/>
    <path d="M156.748,24.587 Q158.465,22.934 158.465,18.288 Q158.465,13.706 156.748,11.989 L156.748,11.69 Q158.031,12.71 158.617,14.702 Q159.097,16.272 159.097,18.288 Q159.097,22.963 156.748,24.874 z" fill="#000000"/>
    <path d="M161.222,20.183 L161.222,19.439 L168.16,19.439 L168.16,20.183 z M161.222,17.265 L161.222,16.509 L168.16,16.509 L168.16,17.265 z" fill="#000000"/>
    <path d="M180.024,30.8 L174.002,18.829 L171.44,20.371 L171.01,19.636 L175.221,17.109 L180.722,28.202 L188.84,1.286 L189.718,1.286 L180.83,30.8 z" fill="#000000"/>
    <path d="M189.127,1.6 L322.727,1.6 L322.727,1.2 L189.127,1.2 z" fill="#000000"/>
    <path d="M192.318,9.002 L191.691,8.856 L191.691,8.592 L193.238,8.592 L193.249,8.914 Q193.495,8.704 193.909,8.575 Q194.322,8.446 194.749,8.446 Q195.804,8.446 196.381,9.178 Q196.958,9.911 196.958,11.282 Q196.958,12.682 196.329,13.45 Q195.699,14.217 194.509,14.217 Q193.847,14.217 193.249,14.088 Q193.285,14.51 193.285,14.75 L193.285,16.239 L194.245,16.379 L194.245,16.655 L191.62,16.655 L191.62,16.379 L192.318,16.239 z M195.904,11.282 Q195.904,10.157 195.537,9.609 Q195.171,9.061 194.427,9.061 Q193.742,9.061 193.285,9.254 L193.285,13.655 Q193.806,13.754 194.427,13.754 Q195.904,13.754 195.904,11.282 z" fill="#000000"/>
    <path d="M202.97,11.317 Q202.97,14.217 200.392,14.217 Q199.15,14.217 198.517,13.473 Q197.884,12.729 197.884,11.317 Q197.884,9.922 198.517,9.184 Q199.15,8.446 200.439,8.446 Q201.693,8.446 202.331,9.169 Q202.97,9.893 202.97,11.317 z M201.915,11.317 Q201.915,10.051 201.546,9.483 Q201.177,8.914 200.392,8.914 Q199.624,8.914 199.282,9.459 Q198.939,10.004 198.939,11.317 Q198.939,12.647 199.287,13.201 Q199.636,13.754 200.392,13.754 Q201.165,13.754 201.54,13.18 Q201.915,12.606 201.915,11.317 z" fill="#000000"/>
    <path d="M208.672,13.766 Q208.385,13.977 207.881,14.097 Q207.377,14.217 206.85,14.217 Q204.172,14.217 204.172,11.305 Q204.172,9.928 204.855,9.187 Q205.537,8.446 206.809,8.446 Q207.6,8.446 208.537,8.627 L208.537,10.163 L208.215,10.163 L207.963,9.19 Q207.477,8.914 206.797,8.914 Q205.227,8.914 205.227,11.305 Q205.227,12.547 205.704,13.078 Q206.182,13.608 207.184,13.608 Q208.039,13.608 208.672,13.414 z" fill="#000000"/>
    <path d="M214.098,8.592 L214.098,10.163 L213.775,10.163 L213.523,9.19 Q212.873,9.079 212.357,9.079 L212.135,9.079 L212.135,13.69 L212.92,13.836 L212.92,14.1 L210.313,14.1 L210.313,13.836 L211.162,13.69 L211.162,9.079 L210.945,9.079 Q210.43,9.079 209.779,9.19 L209.527,10.163 L209.205,10.163 L209.205,8.592 z" fill="#000000"/>
    <path d="M218.785,16.494 L218.785,16.781 Q216.435,14.812 216.435,10.195 Q216.435,5.525 218.785,3.597 L218.785,3.896 Q217.074,5.583 217.074,10.195 Q217.074,14.853 218.785,16.494 z" fill="#000000"/>
    <path d="M224.984,13.766 Q224.697,13.977 224.193,14.097 Q223.689,14.217 223.162,14.217 Q220.484,14.217 220.484,11.305 Q220.484,9.928 221.167,9.187 Q221.849,8.446 223.121,8.446 Q223.912,8.446 224.849,8.627 L224.849,10.163 L224.527,10.163 L224.275,9.19 Q223.789,8.914 223.109,8.914 Q221.539,8.914 221.539,11.305 Q221.539,12.547 222.016,13.078 Q222.494,13.608 223.496,13.608 Q224.351,13.608 224.984,13.414 z" fill="#000000"/>
    <path d="M226.291,9.002 L225.617,8.856 L225.617,8.592 L227.568,8.592 L229.15,12.582 L230.767,8.592 L232.654,8.592 L232.654,8.856 L231.986,9.002 L231.986,13.69 L232.654,13.836 L232.654,14.1 L230.398,14.1 L230.398,13.836 L231.013,13.69 L231.013,9.301 L229.068,14.1 L228.751,14.1 L226.853,9.319 L226.853,13.69 L227.404,13.836 L227.404,14.1 L225.617,14.1 L225.617,13.836 L226.291,13.69 z" fill="#000000"/>
    <path d="M234.548,16.787 Q236.265,15.134 236.265,10.488 Q236.265,5.906 234.548,4.189 L234.548,3.89 Q235.831,4.91 236.417,6.902 Q236.897,8.472 236.897,10.488 Q236.897,15.163 234.548,17.074 z" fill="#000000"/>
    <path d="M238.922,13.69 L241.981,10.631 L238.922,7.573 L239.344,7.163 L242.391,10.221 L245.461,7.163 L245.86,7.573 L242.801,10.631 L245.86,13.69 L245.461,14.1 L242.391,11.041 L239.344,14.1 z" fill="#000000"/>
    <path d="M248.676,9.002 L248.003,8.856 L248.003,8.592 L249.954,8.592 L251.536,12.582 L253.153,8.592 L255.04,8.592 L255.04,8.856 L254.372,9.002 L254.372,13.69 L255.04,13.836 L255.04,14.1 L252.784,14.1 L252.784,13.836 L253.399,13.69 L253.399,9.301 L251.454,14.1 L251.137,14.1 L249.239,9.319 L249.239,13.69 L249.79,13.836 L249.79,14.1 L248.003,14.1 L248.003,13.836 L248.676,13.69 z" fill="#000000"/>
    <path d="M257.962,8.469 Q258.864,8.469 259.289,8.838 Q259.713,9.207 259.713,9.969 L259.713,13.69 L260.399,13.836 L260.399,14.1 L258.887,14.1 L258.776,13.549 Q258.108,14.217 257.071,14.217 Q255.659,14.217 255.659,12.577 Q255.659,12.026 255.873,11.665 Q256.087,11.305 256.555,11.115 Q257.024,10.924 257.915,10.907 L258.741,10.883 L258.741,10.022 Q258.741,9.454 258.533,9.184 Q258.325,8.914 257.891,8.914 Q257.305,8.914 256.819,9.19 L256.62,9.875 L256.292,9.875 L256.292,8.674 Q257.241,8.469 257.962,8.469 z M258.741,11.293 L257.973,11.317 Q257.188,11.346 256.91,11.621 Q256.631,11.897 256.631,12.541 Q256.631,13.573 257.469,13.573 Q257.868,13.573 258.158,13.482 Q258.448,13.391 258.741,13.25 z" fill="#000000"/>
    <path d="M265.508,13.766 Q265.221,13.977 264.717,14.097 Q264.213,14.217 263.686,14.217 Q261.008,14.217 261.008,11.305 Q261.008,9.928 261.691,9.187 Q262.373,8.446 263.645,8.446 Q264.436,8.446 265.373,8.627 L265.373,10.163 L265.051,10.163 L264.799,9.19 Q264.313,8.914 263.633,8.914 Q262.063,8.914 262.063,11.305 Q262.063,12.547 262.54,13.078 Q263.018,13.608 264.02,13.608 Q264.875,13.608 265.508,13.414 z" fill="#000000"/>
    <path d="M270.822,13.766 Q270.535,13.977 270.031,14.097 Q269.527,14.217 269,14.217 Q266.322,14.217 266.322,11.305 Q266.322,9.928 267.005,9.187 Q267.688,8.446 268.959,8.446 Q269.75,8.446 270.688,8.627 L270.688,10.163 L270.365,10.163 L270.113,9.19 Q269.627,8.914 268.947,8.914 Q267.377,8.914 267.377,11.305 Q267.377,12.547 267.855,13.078 Q268.332,13.608 269.334,13.608 Q270.189,13.608 270.822,13.414 z" fill="#000000"/>
    <path d="M274.084,8.469 Q274.986,8.469 275.411,8.838 Q275.836,9.207 275.836,9.969 L275.836,13.69 L276.522,13.836 L276.522,14.1 L275.01,14.1 L274.898,13.549 Q274.231,14.217 273.193,14.217 Q271.781,14.217 271.781,12.577 Q271.781,12.026 271.995,11.665 Q272.209,11.305 272.678,11.115 Q273.147,10.924 274.037,10.907 L274.863,10.883 L274.863,10.022 Q274.863,9.454 274.655,9.184 Q274.447,8.914 274.014,8.914 Q273.428,8.914 272.941,9.19 L272.742,9.875 L272.414,9.875 L272.414,8.674 Q273.363,8.469 274.084,8.469 z M274.863,11.293 L274.096,11.317 Q273.311,11.346 273.032,11.621 Q272.754,11.897 272.754,12.541 Q272.754,13.573 273.592,13.573 Q273.99,13.573 274.28,13.482 Q274.57,13.391 274.863,13.25 z" fill="#000000"/>
    <path d="M283.696,8.592 L283.696,10.163 L283.373,10.163 L283.121,9.19 Q282.471,9.079 281.955,9.079 L281.733,9.079 L281.733,13.69 L282.518,13.836 L282.518,14.1 L279.91,14.1 L279.91,13.836 L280.76,13.69 L280.76,9.079 L280.543,9.079 Q280.028,9.079 279.377,9.19 L279.125,10.163 L278.803,10.163 L278.803,8.592 z" fill="#000000"/>
    <path d="M285.347,11.329 L285.347,11.434 Q285.347,12.243 285.525,12.691 Q285.704,13.139 286.076,13.373 Q286.448,13.608 287.052,13.608 Q287.368,13.608 287.802,13.555 Q288.235,13.502 288.517,13.438 L288.517,13.766 Q288.235,13.948 287.752,14.082 Q287.269,14.217 286.765,14.217 Q285.482,14.217 284.887,13.526 Q284.292,12.834 284.292,11.305 Q284.292,9.864 284.896,9.155 Q285.499,8.446 286.618,8.446 Q288.733,8.446 288.733,10.848 L288.733,11.329 z M286.618,8.914 Q286.009,8.914 285.684,9.407 Q285.358,9.899 285.358,10.86 L287.714,10.86 Q287.714,9.811 287.444,9.363 Q287.175,8.914 286.618,8.914 z" fill="#000000"/>
    <path d="M289.987,13.596 Q290.245,13.596 290.465,12.881 Q290.684,12.166 290.936,10.555 L291.182,9.002 L290.415,8.856 L290.415,8.592 L294.845,8.592 L294.845,8.856 L294.177,9.002 L294.177,13.69 L294.845,13.836 L294.845,14.1 L292.471,14.1 L292.471,13.836 L293.204,13.69 L293.204,9.079 L291.71,9.079 L291.458,10.713 Q291.194,12.413 291.01,13.019 Q290.825,13.625 290.555,13.921 Q290.286,14.217 289.887,14.217 Q289.694,14.217 289.533,14.156 Q289.372,14.094 289.29,14.024 L289.255,13.069 L289.518,13.069 L289.7,13.379 Q289.735,13.444 289.814,13.52 Q289.893,13.596 289.987,13.596 z" fill="#000000"/>
    <path d="M297.85,8.469 Q298.753,8.469 299.178,8.838 Q299.602,9.207 299.602,9.969 L299.602,13.69 L300.288,13.836 L300.288,14.1 L298.776,14.1 L298.665,13.549 Q297.997,14.217 296.96,14.217 Q295.548,14.217 295.548,12.577 Q295.548,12.026 295.762,11.665 Q295.975,11.305 296.444,11.115 Q296.913,10.924 297.803,10.907 L298.63,10.883 L298.63,10.022 Q298.63,9.454 298.422,9.184 Q298.214,8.914 297.78,8.914 Q297.194,8.914 296.708,9.19 L296.509,9.875 L296.18,9.875 L296.18,8.674 Q297.13,8.469 297.85,8.469 z M298.63,11.293 L297.862,11.317 Q297.077,11.346 296.799,11.621 Q296.52,11.897 296.52,12.541 Q296.52,13.573 297.358,13.573 Q297.757,13.573 298.047,13.482 Q298.337,13.391 298.63,13.25 z" fill="#000000"/>
    <path d="M305.085,16.494 L305.085,16.781 Q302.735,14.812 302.735,10.195 Q302.735,5.525 305.085,3.597 L305.085,3.896 Q303.374,5.583 303.374,10.195 Q303.374,14.853 305.085,16.494 z" fill="#000000"/>
    <path d="M307.476,9.002 L306.744,8.856 L306.744,8.592 L309.117,8.592 L309.117,8.856 L308.449,9.002 L308.449,11.44 L310.699,9.014 L310.125,8.856 L310.125,8.592 L312.07,8.592 L312.07,8.856 L311.385,8.991 L309.814,10.596 L311.83,13.702 L312.369,13.836 L312.369,14.1 L310.172,14.1 L310.172,13.836 L310.676,13.69 L309.164,11.317 L308.449,11.926 L308.449,13.69 L309.117,13.836 L309.117,14.1 L306.744,14.1 L306.744,13.836 L307.476,13.69 z" fill="#000000"/>
    <path d="M316.945,10.163 L316.622,10.163 L316.37,9.19 Q315.72,9.079 315.204,9.079 L314.255,9.079 L314.255,13.69 L315.157,13.836 L315.157,14.1 L312.55,14.1 L312.55,13.836 L313.282,13.69 L313.282,9.002 L312.55,8.856 L312.55,8.592 L316.945,8.592 z" fill="#000000"/>
    <path d="M318.748,16.787 Q320.465,15.134 320.465,10.488 Q320.465,5.906 318.748,4.189 L318.748,3.89 Q320.031,4.91 320.617,6.902 Q321.097,8.472 321.097,10.488 Q321.097,15.163 318.748,17.074 z" fill="#000000"/>
    <path d="M190.427,18.8 L322.227,18.8 L322.227,18.2 L190.427,18.2 z" fill="#000000"/>
    <path d="M249.858,27.961 Q249.858,29.022 249.132,29.62 Q248.405,30.217 247.075,30.217 Q245.962,30.217 244.966,29.965 L244.901,28.313 L245.288,28.313 L245.552,29.414 Q245.78,29.543 246.199,29.637 Q246.618,29.731 246.981,29.731 Q247.901,29.731 248.341,29.309 Q248.78,28.887 248.78,27.903 Q248.78,27.129 248.376,26.728 Q247.972,26.327 247.122,26.286 L246.284,26.239 L246.284,25.758 L247.122,25.705 Q247.784,25.67 248.101,25.295 Q248.417,24.92 248.417,24.159 Q248.417,23.368 248.074,23.007 Q247.731,22.647 246.981,22.647 Q246.671,22.647 246.331,22.732 Q245.991,22.817 245.733,22.957 L245.528,23.918 L245.142,23.918 L245.142,22.407 Q245.722,22.254 246.144,22.204 Q246.565,22.155 246.981,22.155 Q249.501,22.155 249.501,24.088 Q249.501,24.903 249.053,25.386 Q248.604,25.87 247.784,25.987 Q248.851,26.11 249.354,26.599 Q249.858,27.088 249.858,27.961 z" fill="#000000"/>
    <path d="M255.97,27.663 Q255.97,28.887 255.352,29.552 Q254.733,30.217 253.567,30.217 Q252.243,30.217 251.543,29.186 Q250.843,28.155 250.843,26.221 Q250.843,24.955 251.212,24.036 Q251.581,23.116 252.246,22.635 Q252.911,22.155 253.784,22.155 Q254.64,22.155 255.489,22.36 L255.489,23.713 L255.103,23.713 L254.897,22.911 Q254.704,22.805 254.376,22.726 Q254.048,22.647 253.784,22.647 Q252.929,22.647 252.451,23.476 Q251.974,24.305 251.927,25.899 Q252.882,25.395 253.843,25.395 Q254.88,25.395 255.425,25.978 Q255.97,26.561 255.97,27.663 z M253.544,29.754 Q254.253,29.754 254.569,29.294 Q254.886,28.834 254.886,27.774 Q254.886,26.813 254.584,26.385 Q254.282,25.957 253.626,25.957 Q252.823,25.957 251.921,26.25 Q251.921,28.038 252.325,28.896 Q252.729,29.754 253.544,29.754 z" fill="#000000"/>
    <path d="M261.87,26.139 Q261.87,30.217 259.292,30.217 Q258.05,30.217 257.417,29.174 Q256.784,28.131 256.784,26.139 Q256.784,24.188 257.417,23.154 Q258.05,22.12 259.339,22.12 Q260.581,22.12 261.226,23.142 Q261.87,24.164 261.87,26.139 z M260.792,26.139 Q260.792,24.252 260.435,23.42 Q260.077,22.588 259.292,22.588 Q258.53,22.588 258.196,23.373 Q257.862,24.159 257.862,26.139 Q257.862,28.131 258.202,28.943 Q258.542,29.754 259.292,29.754 Q260.065,29.754 260.429,28.902 Q260.792,28.049 260.792,26.139 z" fill="#000000"/>
    <path d="M267.87,26.139 Q267.87,30.217 265.292,30.217 Q264.05,30.217 263.417,29.174 Q262.784,28.131 262.784,26.139 Q262.784,24.188 263.417,23.154 Q264.05,22.12 265.339,22.12 Q266.581,22.12 267.226,23.142 Q267.87,24.164 267.87,26.139 z M266.792,26.139 Q266.792,24.252 266.435,23.42 Q266.077,22.588 265.292,22.588 Q264.53,22.588 264.196,23.373 Q263.862,24.159 263.862,26.139 Q263.862,28.131 264.202,28.943 Q264.542,29.754 265.292,29.754 Q266.065,29.754 266.429,28.902 Q266.792,28.049 266.792,26.139 z" fill="#000000"/>
  </g>
</svg>
