<?xml version="1.0" encoding="UTF-8"?>
<!DOCTYPE svg PUBLIC "-//W3C//DTD SVG 1.1//EN" "http://www.w3.org/Graphics/SVG/1.1/DTD/svg11.dtd">
<svg version="1.1" xmlns="http://www.w3.org/2000/svg" xmlns:xlink="http://www.w3.org/1999/xlink" x="0" y="0" width="100" height="30" viewBox="0, 0, 100, 30">
  <g id="Layer_1">
    <path d="M9.661,29.2 L3.886,17.719 L1.428,19.197 L1.016,18.492 L5.055,16.069 L10.331,26.708 L18.117,0.892 L18.96,0.892 L10.435,29.2 z" fill="#000000"/>
    <path d="M18.181,1.2 L55.081,1.2 L55.081,0.8 L18.181,0.8 z" fill="#000000"/>
    <path d="M23.755,12.931 L25.361,13.089 L25.361,13.4 L21.136,13.4 L21.136,13.089 L22.747,12.931 L22.747,6.521 L21.16,7.089 L21.16,6.779 L23.451,5.478 L23.755,5.478 z" fill="#000000"/>
    <path d="M31.624,9.439 Q31.624,13.517 29.046,13.517 Q27.804,13.517 27.171,12.474 Q26.538,11.431 26.538,9.439 Q26.538,7.488 27.171,6.454 Q27.804,5.42 29.093,5.42 Q30.335,5.42 30.98,6.442 Q31.624,7.464 31.624,9.439 z M30.546,9.439 Q30.546,7.552 30.189,6.72 Q29.831,5.888 29.046,5.888 Q28.285,5.888 27.951,6.673 Q27.617,7.459 27.617,9.439 Q27.617,11.431 27.956,12.243 Q28.296,13.054 29.046,13.054 Q29.82,13.054 30.183,12.202 Q30.546,11.349 30.546,9.439 z" fill="#000000"/>
    <path d="M33.676,12.99 L36.735,9.931 L33.676,6.873 L34.098,6.462 L37.145,9.521 L40.215,6.462 L40.614,6.873 L37.555,9.931 L40.614,12.99 L40.215,13.4 L37.145,10.341 L34.098,13.4 z" fill="#000000"/>
    <path d="M43.359,7.4 L42.972,7.4 L42.972,5.543 L47.836,5.543 L47.836,5.994 L44.332,13.4 L43.576,13.4 L47.015,6.439 L43.564,6.439 z" fill="#000000"/>
    <path d="M53.519,13.4 L48.709,13.4 L48.709,12.539 L49.799,11.548 Q50.847,10.629 51.34,10.06 Q51.832,9.492 52.046,8.888 Q52.26,8.285 52.26,7.505 Q52.26,6.744 51.914,6.345 Q51.568,5.947 50.783,5.947 Q50.472,5.947 50.144,6.032 Q49.816,6.117 49.564,6.257 L49.359,7.218 L48.972,7.218 L48.972,5.707 Q50.039,5.455 50.783,5.455 Q52.072,5.455 52.72,5.991 Q53.367,6.527 53.367,7.505 Q53.367,8.162 53.112,8.745 Q52.857,9.328 52.33,9.905 Q51.803,10.482 50.584,11.519 Q50.062,11.964 49.476,12.498 L53.519,12.498 z" fill="#000000"/>
    <path d="M19.481,17.2 L54.581,17.2 L54.581,16.6 L19.481,16.6 z" fill="#000000"/>
    <path d="M30.613,26.361 Q30.613,27.422 29.886,28.02 Q29.16,28.617 27.829,28.617 Q26.716,28.617 25.72,28.365 L25.656,26.713 L26.042,26.713 L26.306,27.814 Q26.535,27.943 26.954,28.037 Q27.372,28.131 27.736,28.131 Q28.656,28.131 29.095,27.709 Q29.535,27.287 29.535,26.303 Q29.535,25.529 29.13,25.128 Q28.726,24.727 27.876,24.686 L27.038,24.639 L27.038,24.158 L27.876,24.105 Q28.538,24.07 28.855,23.695 Q29.171,23.32 29.171,22.559 Q29.171,21.768 28.829,21.407 Q28.486,21.047 27.736,21.047 Q27.425,21.047 27.085,21.132 Q26.746,21.217 26.488,21.357 L26.283,22.318 L25.896,22.318 L25.896,20.807 Q26.476,20.654 26.898,20.604 Q27.32,20.555 27.736,20.555 Q30.255,20.555 30.255,22.488 Q30.255,23.303 29.807,23.786 Q29.359,24.27 28.538,24.387 Q29.605,24.51 30.109,24.999 Q30.613,25.488 30.613,26.361 z" fill="#000000"/>
    <path d="M36.724,26.062 Q36.724,27.287 36.106,27.952 Q35.488,28.617 34.322,28.617 Q32.997,28.617 32.297,27.586 Q31.597,26.555 31.597,24.621 Q31.597,23.355 31.966,22.436 Q32.335,21.516 33,21.035 Q33.665,20.555 34.538,20.555 Q35.394,20.555 36.244,20.76 L36.244,22.113 L35.857,22.113 L35.652,21.311 Q35.458,21.205 35.13,21.126 Q34.802,21.047 34.538,21.047 Q33.683,21.047 33.205,21.876 Q32.728,22.705 32.681,24.299 Q33.636,23.795 34.597,23.795 Q35.634,23.795 36.179,24.378 Q36.724,24.961 36.724,26.062 z M34.298,28.154 Q35.007,28.154 35.324,27.694 Q35.64,27.234 35.64,26.174 Q35.64,25.213 35.338,24.785 Q35.037,24.357 34.38,24.357 Q33.578,24.357 32.675,24.65 Q32.675,26.437 33.079,27.296 Q33.484,28.154 34.298,28.154 z" fill="#000000"/>
    <path d="M42.624,24.539 Q42.624,28.617 40.046,28.617 Q38.804,28.617 38.171,27.574 Q37.538,26.531 37.538,24.539 Q37.538,22.588 38.171,21.554 Q38.804,20.52 40.093,20.52 Q41.335,20.52 41.98,21.542 Q42.624,22.564 42.624,24.539 z M41.546,24.539 Q41.546,22.652 41.189,21.82 Q40.831,20.988 40.046,20.988 Q39.285,20.988 38.951,21.773 Q38.617,22.559 38.617,24.539 Q38.617,26.531 38.956,27.343 Q39.296,28.154 40.046,28.154 Q40.82,28.154 41.183,27.302 Q41.546,26.449 41.546,24.539 z" fill="#000000"/>
    <path d="M48.624,24.539 Q48.624,28.617 46.046,28.617 Q44.804,28.617 44.171,27.574 Q43.538,26.531 43.538,24.539 Q43.538,22.588 44.171,21.554 Q44.804,20.52 46.093,20.52 Q47.335,20.52 47.98,21.542 Q48.624,22.564 48.624,24.539 z M47.546,24.539 Q47.546,22.652 47.189,21.82 Q46.831,20.988 46.046,20.988 Q45.285,20.988 44.951,21.773 Q44.617,22.559 44.617,24.539 Q44.617,26.531 44.956,27.343 Q45.296,28.154 46.046,28.154 Q46.82,28.154 47.183,27.302 Q47.546,26.449 47.546,24.539 z" fill="#000000"/>
    <path d="M56.776,18.583 L56.776,17.839 L63.714,17.839 L63.714,18.583 z M56.776,15.665 L56.776,14.909 L63.714,14.909 L63.714,15.665 z" fill="#000000"/>
    <path d="M70.924,16.339 Q70.924,20.417 68.346,20.417 Q67.104,20.417 66.471,19.374 Q65.838,18.331 65.838,16.339 Q65.838,14.388 66.471,13.354 Q67.104,12.32 68.393,12.32 Q69.635,12.32 70.28,13.342 Q70.924,14.364 70.924,16.339 z M69.846,16.339 Q69.846,14.452 69.489,13.62 Q69.131,12.788 68.346,12.788 Q67.585,12.788 67.251,13.573 Q66.917,14.359 66.917,16.339 Q66.917,18.331 67.256,19.143 Q67.596,19.954 68.346,19.954 Q69.12,19.954 69.483,19.102 Q69.846,18.249 69.846,16.339 z" fill="#000000"/>
    <path d="M73.59,19.761 Q73.59,20.048 73.388,20.259 Q73.186,20.47 72.881,20.47 Q72.577,20.47 72.375,20.259 Q72.172,20.048 72.172,19.761 Q72.172,19.462 72.378,19.257 Q72.583,19.052 72.881,19.052 Q73.18,19.052 73.385,19.257 Q73.59,19.462 73.59,19.761 z" fill="#000000"/>
    <path d="M79.128,18.571 L79.128,20.3 L78.12,20.3 L78.12,18.571 L74.616,18.571 L74.616,17.792 L78.454,12.402 L79.128,12.402 L79.128,17.734 L80.194,17.734 L80.194,18.571 z M78.12,13.779 L78.09,13.779 L75.278,17.734 L78.12,17.734 z" fill="#000000"/>
    <path d="M83.223,15.706 Q84.583,15.706 85.248,16.263 Q85.913,16.82 85.913,17.962 Q85.913,19.146 85.192,19.781 Q84.471,20.417 83.129,20.417 Q82.016,20.417 81.143,20.165 L81.079,18.513 L81.465,18.513 L81.729,19.614 Q81.987,19.755 82.347,19.843 Q82.708,19.931 83.036,19.931 Q83.962,19.931 84.398,19.494 Q84.835,19.058 84.835,18.021 Q84.835,17.294 84.647,16.922 Q84.46,16.55 84.049,16.374 Q83.639,16.198 82.948,16.198 Q82.415,16.198 81.905,16.339 L81.342,16.339 L81.342,12.443 L85.327,12.443 L85.327,13.339 L81.87,13.339 L81.87,15.847 Q82.503,15.706 83.223,15.706 z" fill="#000000"/>
    <path d="M88.831,15.202 L88.157,15.056 L88.157,14.792 L90.108,14.792 L91.69,18.782 L93.307,14.792 L95.194,14.792 L95.194,15.056 L94.526,15.202 L94.526,19.89 L95.194,20.036 L95.194,20.3 L92.938,20.3 L92.938,20.036 L93.553,19.89 L93.553,15.501 L91.608,20.3 L91.292,20.3 L89.393,15.519 L89.393,19.89 L89.944,20.036 L89.944,20.3 L88.157,20.3 L88.157,20.036 L88.831,19.89 z" fill="#000000"/>
    <path d="M98.984,14.3 L96.098,14.3 L96.098,13.783 L96.752,13.189 Q97.381,12.637 97.676,12.296 Q97.972,11.955 98.1,11.593 Q98.228,11.231 98.228,10.763 Q98.228,10.306 98.021,10.067 Q97.813,9.828 97.342,9.828 Q97.156,9.828 96.959,9.879 Q96.762,9.93 96.611,10.014 L96.488,10.591 L96.256,10.591 L96.256,9.684 Q96.896,9.533 97.342,9.533 Q98.116,9.533 98.504,9.854 Q98.893,10.176 98.893,10.763 Q98.893,11.157 98.74,11.507 Q98.587,11.857 98.271,12.203 Q97.954,12.549 97.223,13.171 Q96.91,13.439 96.558,13.759 L98.984,13.759 z" fill="#000000"/>
  </g>
</svg>
