<?xml version="1.0" encoding="UTF-8"?>
<!DOCTYPE svg PUBLIC "-//W3C//DTD SVG 1.1//EN" "http://www.w3.org/Graphics/SVG/1.1/DTD/svg11.dtd">
<svg version="1.1" xmlns="http://www.w3.org/2000/svg" xmlns:xlink="http://www.w3.org/1999/xlink" x="0" y="0" width="197" height="56" viewBox="0, 0, 197, 56">
  <g id="Layer_1">
    <path d="M1.115,11.631 L1.115,11.32 L2.123,11.162 L2.123,4.236 L1.115,4.084 L1.115,3.773 L9.084,3.773 L9.084,4.084 L8.076,4.236 L8.076,11.162 L9.084,11.32 L9.084,11.631 L5.943,11.631 L5.943,11.32 L6.951,11.162 L6.951,4.301 L3.254,4.301 L3.254,11.162 L4.262,11.32 L4.262,11.631 z" fill="#000000"/>
    <path d="M10.309,11.127 Q10.567,11.127 10.787,10.412 Q11.007,9.697 11.258,8.086 L11.505,6.533 L10.737,6.387 L10.737,6.123 L15.167,6.123 L15.167,6.387 L14.499,6.533 L14.499,11.221 L15.167,11.367 L15.167,11.631 L12.794,11.631 L12.794,11.367 L13.526,11.221 L13.526,6.609 L12.032,6.609 L11.78,8.244 Q11.516,9.943 11.332,10.55 Q11.147,11.156 10.878,11.452 Q10.608,11.748 10.21,11.748 Q10.016,11.748 9.855,11.686 Q9.694,11.625 9.612,11.555 L9.577,10.599 L9.84,10.599 L10.022,10.91 Q10.057,10.974 10.136,11.051 Q10.215,11.127 10.309,11.127 z" fill="#000000"/>
    <path d="M20.991,8.847 Q20.991,11.748 18.413,11.748 Q17.171,11.748 16.538,11.004 Q15.905,10.26 15.905,8.847 Q15.905,7.453 16.538,6.715 Q17.171,5.976 18.46,5.976 Q19.714,5.976 20.352,6.7 Q20.991,7.424 20.991,8.847 z M19.936,8.847 Q19.936,7.582 19.567,7.014 Q19.198,6.445 18.413,6.445 Q17.645,6.445 17.302,6.99 Q16.96,7.535 16.96,8.847 Q16.96,10.178 17.308,10.731 Q17.657,11.285 18.413,11.285 Q19.186,11.285 19.561,10.711 Q19.936,10.137 19.936,8.847 z" fill="#000000"/>
    <path d="M21.653,11.631 L21.653,11.367 L22.385,11.221 L22.385,6.533 L21.653,6.387 L21.653,6.123 L24.026,6.123 L24.026,6.387 L23.358,6.533 L23.358,11.144 L25.573,11.144 L25.573,6.533 L24.84,6.387 L24.84,6.123 L27.214,6.123 L27.214,6.387 L26.546,6.533 L26.546,11.144 L28.755,11.144 L28.755,6.533 L28.022,6.387 L28.022,6.123 L30.395,6.123 L30.395,6.387 L29.727,6.533 L29.727,11.221 L30.407,11.314 L30.307,14.127 L29.926,14.127 L29.358,11.631 z" fill="#000000"/>
    <path d="M33.377,6 Q34.279,6 34.704,6.369 Q35.129,6.738 35.129,7.5 L35.129,11.221 L35.814,11.367 L35.814,11.631 L34.303,11.631 L34.191,11.08 Q33.523,11.748 32.486,11.748 Q31.074,11.748 31.074,10.107 Q31.074,9.556 31.288,9.196 Q31.502,8.836 31.971,8.645 Q32.439,8.455 33.33,8.437 L34.156,8.414 L34.156,7.553 Q34.156,6.984 33.948,6.715 Q33.74,6.445 33.306,6.445 Q32.721,6.445 32.234,6.721 L32.035,7.406 L31.707,7.406 L31.707,6.205 Q32.656,6 33.377,6 z M34.156,8.824 L33.388,8.847 Q32.603,8.877 32.325,9.152 Q32.047,9.428 32.047,10.072 Q32.047,11.103 32.885,11.103 Q33.283,11.103 33.573,11.013 Q33.863,10.922 34.156,10.781 z" fill="#000000"/>
    <path d="M37.326,6.387 L37.326,6.123 L41.615,6.123 L41.615,6.387 L40.947,6.533 L40.947,11.221 L41.802,11.314 L41.703,13.951 L41.322,13.951 L40.812,11.631 L36.957,11.631 L36.447,13.951 L36.066,13.951 L35.966,11.314 L36.834,11.203 Q37.308,10.301 37.639,9.085 Q37.97,7.869 38.064,6.533 z M37.449,11.144 L39.974,11.144 L39.974,6.533 L38.568,6.533 Q38.492,7.816 38.202,9.014 Q37.912,10.213 37.449,11.144 z" fill="#000000"/>
    <path d="M44.585,11.162 Q45.429,11.162 45.778,10.895 Q46.126,10.629 46.126,10.06 Q46.126,9.504 45.781,9.266 Q45.435,9.029 44.585,9.029 L43.994,9.029 L43.994,11.162 z M44.726,6.123 L44.726,6.387 L43.994,6.533 L43.994,8.56 L44.691,8.56 Q45.968,8.56 46.575,8.906 Q47.181,9.252 47.181,10.031 Q47.181,10.904 46.601,11.267 Q46.021,11.631 44.673,11.631 L42.289,11.631 L42.289,11.367 L43.021,11.221 L43.021,6.533 L42.289,6.387 L42.289,6.123 z" fill="#000000"/>
    <path d="M50.219,6.533 L49.486,6.387 L49.486,6.123 L55.41,6.123 L55.41,6.387 L54.742,6.533 L54.742,11.221 L55.41,11.367 L55.41,11.631 L53.037,11.631 L53.037,11.367 L53.77,11.221 L53.77,6.609 L51.191,6.609 L51.191,11.221 L51.859,11.367 L51.859,11.631 L49.486,11.631 L49.486,11.367 L50.219,11.221 z" fill="#000000"/>
    <path d="M61.21,8.847 Q61.21,11.748 58.632,11.748 Q57.39,11.748 56.757,11.004 Q56.125,10.26 56.125,8.847 Q56.125,7.453 56.757,6.715 Q57.39,5.976 58.679,5.976 Q59.933,5.976 60.572,6.7 Q61.21,7.424 61.21,8.847 z M60.156,8.847 Q60.156,7.582 59.787,7.014 Q59.417,6.445 58.632,6.445 Q57.865,6.445 57.522,6.99 Q57.179,7.535 57.179,8.847 Q57.179,10.178 57.528,10.731 Q57.876,11.285 58.632,11.285 Q59.406,11.285 59.781,10.711 Q60.156,10.137 60.156,8.847 z" fill="#000000"/>
    <path d="M61.884,11.631 L61.884,11.367 L62.617,11.221 L62.617,6.533 L61.884,6.387 L61.884,6.123 L64.24,6.123 Q65.535,6.123 66.071,6.445 Q66.607,6.767 66.607,7.453 Q66.607,8.015 66.288,8.32 Q65.968,8.625 65.382,8.76 L65.382,8.806 Q66.126,8.889 66.525,9.187 Q66.923,9.486 66.923,10.084 Q66.923,10.91 66.323,11.27 Q65.722,11.631 64.375,11.631 z M64.287,11.162 Q65.154,11.162 65.511,10.904 Q65.869,10.646 65.869,10.06 Q65.869,9.504 65.491,9.266 Q65.113,9.029 64.21,9.029 L63.589,9.029 L63.589,11.162 z M63.589,8.56 L64.21,8.56 Q64.914,8.56 65.233,8.326 Q65.552,8.092 65.552,7.529 Q65.552,7.055 65.227,6.823 Q64.902,6.592 64.187,6.592 L63.589,6.592 z" fill="#000000"/>
    <path d="M68.797,8.859 L68.797,8.965 Q68.797,9.773 68.976,10.222 Q69.154,10.67 69.526,10.904 Q69.899,11.139 70.502,11.139 Q70.818,11.139 71.252,11.086 Q71.686,11.033 71.967,10.969 L71.967,11.297 Q71.686,11.478 71.202,11.613 Q70.719,11.748 70.215,11.748 Q68.932,11.748 68.337,11.056 Q67.742,10.365 67.742,8.836 Q67.742,7.394 68.346,6.685 Q68.949,5.976 70.068,5.976 Q72.184,5.976 72.184,8.379 L72.184,8.859 z M70.068,6.445 Q69.459,6.445 69.134,6.937 Q68.809,7.43 68.809,8.39 L71.164,8.39 Q71.164,7.342 70.895,6.893 Q70.625,6.445 70.068,6.445 z" fill="#000000"/>
    <path d="M73.478,6.533 L72.851,6.387 L72.851,6.123 L74.398,6.123 L74.41,6.445 Q74.656,6.234 75.069,6.105 Q75.482,5.976 75.91,5.976 Q76.965,5.976 77.542,6.709 Q78.119,7.441 78.119,8.812 Q78.119,10.213 77.489,10.98 Q76.859,11.748 75.67,11.748 Q75.008,11.748 74.41,11.619 Q74.445,12.041 74.445,12.281 L74.445,13.769 L75.406,13.91 L75.406,14.185 L72.781,14.185 L72.781,13.91 L73.478,13.769 z M77.064,8.812 Q77.064,7.687 76.698,7.139 Q76.332,6.592 75.588,6.592 Q74.902,6.592 74.445,6.785 L74.445,11.185 Q74.967,11.285 75.588,11.285 Q77.064,11.285 77.064,8.812 z" fill="#000000"/>
    <path d="M84.441,11.367 L84.441,11.631 L81.945,11.631 L81.945,11.367 L82.678,11.232 L81.406,9.281 L79.918,11.244 L80.674,11.367 L80.674,11.631 L78.693,11.631 L78.693,11.367 L79.332,11.273 L81.142,8.883 L79.549,6.533 L78.898,6.387 L78.898,6.123 L81.394,6.123 L81.394,6.387 L80.662,6.545 L81.722,8.127 L82.941,6.533 L82.185,6.387 L82.185,6.123 L84.166,6.123 L84.166,6.387 L83.533,6.51 L81.986,8.514 L83.797,11.244 z" fill="#000000"/>
    <path d="M85.537,6.533 L84.804,6.387 L84.804,6.123 L87.178,6.123 L87.178,6.387 L86.51,6.533 L86.51,8.572 L89.088,8.572 L89.088,6.533 L88.355,6.387 L88.355,6.123 L90.728,6.123 L90.728,6.387 L90.06,6.533 L90.06,11.221 L90.728,11.367 L90.728,11.631 L88.355,11.631 L88.355,11.367 L89.088,11.221 L89.088,9.058 L86.51,9.058 L86.51,11.221 L87.178,11.367 L87.178,11.631 L84.804,11.631 L84.804,11.367 L85.537,11.221 z" fill="#000000"/>
    <path d="M96.529,8.847 Q96.529,11.748 93.95,11.748 Q92.708,11.748 92.075,11.004 Q91.443,10.26 91.443,8.847 Q91.443,7.453 92.075,6.715 Q92.708,5.976 93.997,5.976 Q95.251,5.976 95.89,6.7 Q96.529,7.424 96.529,8.847 z M95.474,8.847 Q95.474,7.582 95.105,7.014 Q94.736,6.445 93.95,6.445 Q93.183,6.445 92.84,6.99 Q92.497,7.535 92.497,8.847 Q92.497,10.178 92.846,10.731 Q93.195,11.285 93.95,11.285 Q94.724,11.285 95.099,10.711 Q95.474,10.137 95.474,8.847 z" fill="#000000"/>
    <path d="M102.231,11.297 Q101.943,11.508 101.44,11.628 Q100.936,11.748 100.408,11.748 Q97.731,11.748 97.731,8.836 Q97.731,7.459 98.413,6.718 Q99.096,5.976 100.367,5.976 Q101.158,5.976 102.096,6.158 L102.096,7.693 L101.774,7.693 L101.522,6.721 Q101.035,6.445 100.356,6.445 Q98.785,6.445 98.785,8.836 Q98.785,10.078 99.263,10.608 Q99.74,11.139 100.742,11.139 Q101.598,11.139 102.231,10.945 z" fill="#000000"/>
    <path d="M107.656,6.123 L107.656,7.693 L107.334,7.693 L107.082,6.721 Q106.431,6.609 105.916,6.609 L105.693,6.609 L105.693,11.221 L106.478,11.367 L106.478,11.631 L103.871,11.631 L103.871,11.367 L104.721,11.221 L104.721,6.609 L104.504,6.609 Q103.988,6.609 103.338,6.721 L103.086,7.693 L102.764,7.693 L102.764,6.123 z" fill="#000000"/>
    <path d="M108.733,6.533 L108.001,6.387 L108.001,6.123 L110.374,6.123 L110.374,6.387 L109.706,6.533 L109.706,9.996 L112.284,7.207 L112.284,6.533 L111.551,6.387 L111.551,6.123 L113.924,6.123 L113.924,6.387 L113.257,6.533 L113.257,11.221 L113.924,11.367 L113.924,11.631 L111.551,11.631 L111.551,11.367 L112.284,11.221 L112.284,7.869 L109.706,10.658 L109.706,11.221 L110.374,11.367 L110.374,11.631 L108.001,11.631 L108.001,11.367 L108.733,11.221 z" fill="#000000"/>
    <path d="M121.238,6.123 L121.238,7.693 L120.916,7.693 L120.664,6.721 Q120.013,6.609 119.498,6.609 L119.275,6.609 L119.275,11.221 L120.06,11.367 L120.06,11.631 L117.453,11.631 L117.453,11.367 L118.302,11.221 L118.302,6.609 L118.086,6.609 Q117.57,6.609 116.92,6.721 L116.668,7.693 L116.345,7.693 L116.345,6.123 z" fill="#000000"/>
    <path d="M122.889,8.859 L122.889,8.965 Q122.889,9.773 123.068,10.222 Q123.247,10.67 123.619,10.904 Q123.991,11.139 124.594,11.139 Q124.911,11.139 125.344,11.086 Q125.778,11.033 126.059,10.969 L126.059,11.297 Q125.778,11.478 125.294,11.613 Q124.811,11.748 124.307,11.748 Q123.024,11.748 122.429,11.056 Q121.835,10.365 121.835,8.836 Q121.835,7.394 122.438,6.685 Q123.042,5.976 124.161,5.976 Q126.276,5.976 126.276,8.379 L126.276,8.859 z M124.161,6.445 Q123.551,6.445 123.226,6.937 Q122.901,7.43 122.901,8.39 L125.256,8.39 Q125.256,7.342 124.987,6.893 Q124.717,6.445 124.161,6.445 z" fill="#000000"/>
    <path d="M127.53,11.127 Q127.787,11.127 128.007,10.412 Q128.227,9.697 128.479,8.086 L128.725,6.533 L127.957,6.387 L127.957,6.123 L132.387,6.123 L132.387,6.387 L131.719,6.533 L131.719,11.221 L132.387,11.367 L132.387,11.631 L130.014,11.631 L130.014,11.367 L130.746,11.221 L130.746,6.609 L129.252,6.609 L129,8.244 Q128.737,9.943 128.552,10.55 Q128.367,11.156 128.098,11.452 Q127.828,11.748 127.43,11.748 Q127.237,11.748 127.075,11.686 Q126.914,11.625 126.832,11.555 L126.797,10.599 L127.061,10.599 L127.242,10.91 Q127.278,10.974 127.357,11.051 Q127.436,11.127 127.53,11.127 z" fill="#000000"/>
    <path d="M135.393,6 Q136.295,6 136.72,6.369 Q137.145,6.738 137.145,7.5 L137.145,11.221 L137.83,11.367 L137.83,11.631 L136.319,11.631 L136.207,11.08 Q135.539,11.748 134.502,11.748 Q133.09,11.748 133.09,10.107 Q133.09,9.556 133.304,9.196 Q133.518,8.836 133.987,8.645 Q134.455,8.455 135.346,8.437 L136.172,8.414 L136.172,7.553 Q136.172,6.984 135.964,6.715 Q135.756,6.445 135.323,6.445 Q134.737,6.445 134.25,6.721 L134.051,7.406 L133.723,7.406 L133.723,6.205 Q134.672,6 135.393,6 z M136.172,8.824 L135.405,8.847 Q134.619,8.877 134.341,9.152 Q134.063,9.428 134.063,10.072 Q134.063,11.103 134.901,11.103 Q135.299,11.103 135.589,11.013 Q135.879,10.922 136.172,10.781 z" fill="#000000"/>
    <path d="M142.627,14.024 L142.627,14.311 Q140.277,12.343 140.277,7.725 Q140.277,3.055 142.627,1.128 L142.627,1.427 Q140.916,3.114 140.916,7.725 Q140.916,12.384 142.627,14.024 z" fill="#000000"/>
    <path d="M145.019,6.533 L144.345,6.387 L144.345,6.123 L146.296,6.123 L147.878,10.113 L149.495,6.123 L151.382,6.123 L151.382,6.387 L150.714,6.533 L150.714,11.221 L151.382,11.367 L151.382,11.631 L149.126,11.631 L149.126,11.367 L149.741,11.221 L149.741,6.832 L147.796,11.631 L147.48,11.631 L145.581,6.849 L145.581,11.221 L146.132,11.367 L146.132,11.631 L144.345,11.631 L144.345,11.367 L145.019,11.221 z" fill="#000000"/>
    <path d="M155.172,5.631 L152.286,5.631 L152.286,5.114 L152.94,4.52 Q153.569,3.968 153.865,3.627 Q154.16,3.286 154.288,2.924 Q154.416,2.562 154.416,2.094 Q154.416,1.637 154.209,1.398 Q154.002,1.159 153.531,1.159 Q153.344,1.159 153.147,1.21 Q152.95,1.261 152.799,1.345 L152.676,1.922 L152.444,1.922 L152.444,1.015 Q153.084,0.864 153.531,0.864 Q154.304,0.864 154.692,1.185 Q155.081,1.507 155.081,2.094 Q155.081,2.488 154.928,2.838 Q154.775,3.187 154.459,3.534 Q154.142,3.88 153.411,4.502 Q153.098,4.769 152.747,5.089 L155.172,5.089 z" fill="#000000"/>
    <path d="M156.59,14.317 Q158.307,12.665 158.307,8.018 Q158.307,3.436 156.59,1.72 L156.59,1.421 Q157.874,2.44 158.459,4.432 Q158.94,6.003 158.94,8.018 Q158.94,12.694 156.59,14.604 z" fill="#000000"/>
    <path d="M161.065,9.914 L161.065,9.17 L168.002,9.17 L168.002,9.914 z M161.065,6.996 L161.065,6.24 L168.002,6.24 L168.002,6.996 z" fill="#000000"/>
    <path d="M53.181,55.136 L47.16,43.166 L44.597,44.707 L44.167,43.972 L48.379,41.446 L53.88,52.538 L61.998,25.622 L62.876,25.622 L53.988,55.136 z" fill="#000000"/>
    <path d="M62.285,25.937 L195.885,25.937 L195.885,25.537 L62.285,25.537 z" fill="#000000"/>
    <path d="M65.475,33.339 L64.848,33.192 L64.848,32.929 L66.395,32.929 L66.407,33.251 Q66.653,33.04 67.066,32.911 Q67.479,32.782 67.907,32.782 Q68.962,32.782 69.539,33.515 Q70.116,34.247 70.116,35.618 Q70.116,37.019 69.486,37.786 Q68.856,38.554 67.667,38.554 Q67.005,38.554 66.407,38.425 Q66.442,38.847 66.442,39.087 L66.442,40.575 L67.403,40.716 L67.403,40.991 L64.778,40.991 L64.778,40.716 L65.475,40.575 z M69.061,35.618 Q69.061,34.493 68.695,33.945 Q68.329,33.397 67.585,33.397 Q66.899,33.397 66.442,33.591 L66.442,37.991 Q66.964,38.091 67.585,38.091 Q69.061,38.091 69.061,35.618 z" fill="#000000"/>
    <path d="M76.128,35.653 Q76.128,38.554 73.55,38.554 Q72.307,38.554 71.675,37.81 Q71.042,37.065 71.042,35.653 Q71.042,34.259 71.675,33.52 Q72.307,32.782 73.596,32.782 Q74.85,32.782 75.489,33.506 Q76.128,34.229 76.128,35.653 z M75.073,35.653 Q75.073,34.388 74.704,33.819 Q74.335,33.251 73.55,33.251 Q72.782,33.251 72.439,33.796 Q72.096,34.341 72.096,35.653 Q72.096,36.983 72.445,37.537 Q72.794,38.091 73.55,38.091 Q74.323,38.091 74.698,37.517 Q75.073,36.942 75.073,35.653 z" fill="#000000"/>
    <path d="M81.83,38.103 Q81.543,38.313 81.039,38.434 Q80.535,38.554 80.007,38.554 Q77.33,38.554 77.33,35.642 Q77.33,34.265 78.012,33.523 Q78.695,32.782 79.966,32.782 Q80.757,32.782 81.695,32.964 L81.695,34.499 L81.373,34.499 L81.121,33.526 Q80.634,33.251 79.955,33.251 Q78.384,33.251 78.384,35.642 Q78.384,36.884 78.862,37.414 Q79.339,37.944 80.341,37.944 Q81.197,37.944 81.83,37.751 z" fill="#000000"/>
    <path d="M87.255,32.929 L87.255,34.499 L86.933,34.499 L86.681,33.526 Q86.031,33.415 85.515,33.415 L85.292,33.415 L85.292,38.026 L86.077,38.173 L86.077,38.437 L83.47,38.437 L83.47,38.173 L84.32,38.026 L84.32,33.415 L84.103,33.415 Q83.587,33.415 82.937,33.526 L82.685,34.499 L82.363,34.499 L82.363,32.929 z" fill="#000000"/>
    <path d="M91.942,40.83 L91.942,41.117 Q89.592,39.148 89.592,34.531 Q89.592,29.861 91.942,27.934 L91.942,28.232 Q90.231,29.92 90.231,34.531 Q90.231,39.189 91.942,40.83 z" fill="#000000"/>
    <path d="M98.142,38.103 Q97.855,38.313 97.351,38.434 Q96.847,38.554 96.319,38.554 Q93.642,38.554 93.642,35.642 Q93.642,34.265 94.324,33.523 Q95.007,32.782 96.278,32.782 Q97.069,32.782 98.007,32.964 L98.007,34.499 L97.685,34.499 L97.433,33.526 Q96.946,33.251 96.267,33.251 Q94.696,33.251 94.696,35.642 Q94.696,36.884 95.174,37.414 Q95.651,37.944 96.653,37.944 Q97.509,37.944 98.142,37.751 z" fill="#000000"/>
    <path d="M99.448,33.339 L98.774,33.192 L98.774,32.929 L100.725,32.929 L102.307,36.919 L103.925,32.929 L105.811,32.929 L105.811,33.192 L105.143,33.339 L105.143,38.026 L105.811,38.173 L105.811,38.437 L103.555,38.437 L103.555,38.173 L104.171,38.026 L104.171,33.638 L102.225,38.437 L101.909,38.437 L100.011,33.655 L100.011,38.026 L100.561,38.173 L100.561,38.437 L98.774,38.437 L98.774,38.173 L99.448,38.026 z" fill="#000000"/>
    <path d="M107.705,41.123 Q109.422,39.471 109.422,34.824 Q109.422,30.242 107.705,28.525 L107.705,28.227 Q108.989,29.246 109.575,31.238 Q110.055,32.809 110.055,34.824 Q110.055,39.5 107.705,41.41 z" fill="#000000"/>
    <path d="M112.08,38.026 L115.138,34.968 L112.08,31.909 L112.501,31.499 L115.548,34.558 L118.619,31.499 L119.017,31.909 L115.959,34.968 L119.017,38.026 L118.619,38.437 L115.548,35.378 L112.501,38.437 z" fill="#000000"/>
    <path d="M121.834,33.339 L121.16,33.192 L121.16,32.929 L123.111,32.929 L124.693,36.919 L126.31,32.929 L128.197,32.929 L128.197,33.192 L127.529,33.339 L127.529,38.026 L128.197,38.173 L128.197,38.437 L125.941,38.437 L125.941,38.173 L126.557,38.026 L126.557,33.638 L124.611,38.437 L124.295,38.437 L122.396,33.655 L122.396,38.026 L122.947,38.173 L122.947,38.437 L121.16,38.437 L121.16,38.173 L121.834,38.026 z" fill="#000000"/>
    <path d="M131.119,32.806 Q132.021,32.806 132.446,33.175 Q132.871,33.544 132.871,34.306 L132.871,38.026 L133.557,38.173 L133.557,38.437 L132.045,38.437 L131.933,37.886 Q131.266,38.554 130.228,38.554 Q128.816,38.554 128.816,36.913 Q128.816,36.362 129.03,36.002 Q129.244,35.642 129.713,35.451 Q130.182,35.261 131.072,35.243 L131.898,35.22 L131.898,34.358 Q131.898,33.79 131.69,33.52 Q131.482,33.251 131.049,33.251 Q130.463,33.251 129.976,33.526 L129.777,34.212 L129.449,34.212 L129.449,33.011 Q130.398,32.806 131.119,32.806 z M131.898,35.63 L131.131,35.653 Q130.346,35.683 130.067,35.958 Q129.789,36.233 129.789,36.878 Q129.789,37.909 130.627,37.909 Q131.025,37.909 131.315,37.818 Q131.605,37.728 131.898,37.587 z" fill="#000000"/>
    <path d="M138.666,38.103 Q138.379,38.313 137.875,38.434 Q137.371,38.554 136.843,38.554 Q134.166,38.554 134.166,35.642 Q134.166,34.265 134.848,33.523 Q135.531,32.782 136.802,32.782 Q137.593,32.782 138.531,32.964 L138.531,34.499 L138.209,34.499 L137.957,33.526 Q137.47,33.251 136.791,33.251 Q135.22,33.251 135.22,35.642 Q135.22,36.884 135.698,37.414 Q136.175,37.944 137.177,37.944 Q138.033,37.944 138.666,37.751 z" fill="#000000"/>
    <path d="M143.98,38.103 Q143.693,38.313 143.189,38.434 Q142.685,38.554 142.158,38.554 Q139.48,38.554 139.48,35.642 Q139.48,34.265 140.162,33.523 Q140.845,32.782 142.117,32.782 Q142.908,32.782 143.845,32.964 L143.845,34.499 L143.523,34.499 L143.271,33.526 Q142.785,33.251 142.105,33.251 Q140.535,33.251 140.535,35.642 Q140.535,36.884 141.012,37.414 Q141.49,37.944 142.492,37.944 Q143.347,37.944 143.98,37.751 z" fill="#000000"/>
    <path d="M147.242,32.806 Q148.144,32.806 148.569,33.175 Q148.994,33.544 148.994,34.306 L148.994,38.026 L149.679,38.173 L149.679,38.437 L148.167,38.437 L148.056,37.886 Q147.388,38.554 146.351,38.554 Q144.939,38.554 144.939,36.913 Q144.939,36.362 145.153,36.002 Q145.367,35.642 145.835,35.451 Q146.304,35.261 147.195,35.243 L148.021,35.22 L148.021,34.358 Q148.021,33.79 147.813,33.52 Q147.605,33.251 147.171,33.251 Q146.585,33.251 146.099,33.526 L145.9,34.212 L145.572,34.212 L145.572,33.011 Q146.521,32.806 147.242,32.806 z M148.021,35.63 L147.253,35.653 Q146.468,35.683 146.19,35.958 Q145.911,36.233 145.911,36.878 Q145.911,37.909 146.749,37.909 Q147.148,37.909 147.438,37.818 Q147.728,37.728 148.021,37.587 z" fill="#000000"/>
    <path d="M156.853,32.929 L156.853,34.499 L156.531,34.499 L156.279,33.526 Q155.628,33.415 155.113,33.415 L154.89,33.415 L154.89,38.026 L155.675,38.173 L155.675,38.437 L153.068,38.437 L153.068,38.173 L153.917,38.026 L153.917,33.415 L153.701,33.415 Q153.185,33.415 152.535,33.526 L152.283,34.499 L151.96,34.499 L151.96,32.929 z" fill="#000000"/>
    <path d="M158.504,35.665 L158.504,35.77 Q158.504,36.579 158.683,37.027 Q158.862,37.476 159.234,37.71 Q159.606,37.944 160.209,37.944 Q160.526,37.944 160.959,37.892 Q161.393,37.839 161.674,37.774 L161.674,38.103 Q161.393,38.284 160.91,38.419 Q160.426,38.554 159.922,38.554 Q158.639,38.554 158.044,37.862 Q157.45,37.171 157.45,35.642 Q157.45,34.2 158.053,33.491 Q158.657,32.782 159.776,32.782 Q161.891,32.782 161.891,35.185 L161.891,35.665 z M159.776,33.251 Q159.166,33.251 158.841,33.743 Q158.516,34.235 158.516,35.196 L160.871,35.196 Q160.871,34.147 160.602,33.699 Q160.332,33.251 159.776,33.251 z" fill="#000000"/>
    <path d="M163.145,37.933 Q163.402,37.933 163.622,37.218 Q163.842,36.503 164.094,34.892 L164.34,33.339 L163.572,33.192 L163.572,32.929 L168.002,32.929 L168.002,33.192 L167.334,33.339 L167.334,38.026 L168.002,38.173 L168.002,38.437 L165.629,38.437 L165.629,38.173 L166.361,38.026 L166.361,33.415 L164.867,33.415 L164.615,35.05 Q164.352,36.749 164.167,37.355 Q163.982,37.962 163.713,38.258 Q163.443,38.554 163.045,38.554 Q162.852,38.554 162.691,38.492 Q162.529,38.431 162.447,38.36 L162.412,37.405 L162.676,37.405 L162.857,37.716 Q162.893,37.78 162.972,37.856 Q163.051,37.933 163.145,37.933 z" fill="#000000"/>
    <path d="M171.008,32.806 Q171.91,32.806 172.335,33.175 Q172.76,33.544 172.76,34.306 L172.76,38.026 L173.445,38.173 L173.445,38.437 L171.934,38.437 L171.822,37.886 Q171.154,38.554 170.117,38.554 Q168.705,38.554 168.705,36.913 Q168.705,36.362 168.919,36.002 Q169.133,35.642 169.602,35.451 Q170.07,35.261 170.961,35.243 L171.787,35.22 L171.787,34.358 Q171.787,33.79 171.579,33.52 Q171.371,33.251 170.938,33.251 Q170.352,33.251 169.865,33.526 L169.666,34.212 L169.338,34.212 L169.338,33.011 Q170.287,32.806 171.008,32.806 z M171.787,35.63 L171.02,35.653 Q170.234,35.683 169.956,35.958 Q169.678,36.233 169.678,36.878 Q169.678,37.909 170.516,37.909 Q170.914,37.909 171.204,37.818 Q171.494,37.728 171.787,37.587 z" fill="#000000"/>
    <path d="M178.242,40.83 L178.242,41.117 Q175.893,39.148 175.893,34.531 Q175.893,29.861 178.242,27.934 L178.242,28.232 Q176.531,29.92 176.531,34.531 Q176.531,39.189 178.242,40.83 z" fill="#000000"/>
    <path d="M180.634,33.339 L179.901,33.192 L179.901,32.929 L182.275,32.929 L182.275,33.192 L181.607,33.339 L181.607,35.776 L183.857,33.351 L183.282,33.192 L183.282,32.929 L185.228,32.929 L185.228,33.192 L184.542,33.327 L182.972,34.933 L184.987,38.038 L185.526,38.173 L185.526,38.437 L183.329,38.437 L183.329,38.173 L183.833,38.026 L182.321,35.653 L181.607,36.263 L181.607,38.026 L182.275,38.173 L182.275,38.437 L179.901,38.437 L179.901,38.173 L180.634,38.026 z" fill="#000000"/>
    <path d="M190.102,34.499 L189.78,34.499 L189.528,33.526 Q188.877,33.415 188.362,33.415 L187.413,33.415 L187.413,38.026 L188.315,38.173 L188.315,38.437 L185.708,38.437 L185.708,38.173 L186.44,38.026 L186.44,33.339 L185.708,33.192 L185.708,32.929 L190.102,32.929 z" fill="#000000"/>
    <path d="M191.905,41.123 Q193.622,39.471 193.622,34.824 Q193.622,30.242 191.905,28.525 L191.905,28.227 Q193.189,29.246 193.775,31.238 Q194.255,32.809 194.255,34.824 Q194.255,39.5 191.905,41.41 z" fill="#000000"/>
    <path d="M63.585,43.136 L195.385,43.136 L195.385,42.536 L63.585,42.536 z" fill="#000000"/>
    <path d="M123.016,52.298 Q123.016,53.358 122.289,53.956 Q121.563,54.554 120.233,54.554 Q119.119,54.554 118.123,54.302 L118.059,52.649 L118.446,52.649 L118.709,53.751 Q118.938,53.88 119.357,53.974 Q119.776,54.067 120.139,54.067 Q121.059,54.067 121.498,53.645 Q121.938,53.224 121.938,52.239 Q121.938,51.466 121.533,51.064 Q121.129,50.663 120.28,50.622 L119.442,50.575 L119.442,50.095 L120.28,50.042 Q120.942,50.007 121.258,49.632 Q121.575,49.257 121.575,48.495 Q121.575,47.704 121.232,47.344 Q120.889,46.983 120.139,46.983 Q119.828,46.983 119.489,47.068 Q119.149,47.153 118.891,47.294 L118.686,48.255 L118.299,48.255 L118.299,46.743 Q118.879,46.591 119.301,46.541 Q119.723,46.491 120.139,46.491 Q122.658,46.491 122.658,48.425 Q122.658,49.239 122.21,49.723 Q121.762,50.206 120.942,50.323 Q122.008,50.446 122.512,50.936 Q123.016,51.425 123.016,52.298 z" fill="#000000"/>
    <path d="M129.127,51.999 Q129.127,53.224 128.509,53.889 Q127.891,54.554 126.725,54.554 Q125.401,54.554 124.7,53.522 Q124,52.491 124,50.558 Q124,49.292 124.369,48.372 Q124.739,47.452 125.404,46.972 Q126.069,46.491 126.942,46.491 Q127.797,46.491 128.647,46.696 L128.647,48.05 L128.26,48.05 L128.055,47.247 Q127.862,47.142 127.533,47.062 Q127.205,46.983 126.942,46.983 Q126.086,46.983 125.609,47.812 Q125.131,48.642 125.084,50.235 Q126.039,49.731 127,49.731 Q128.037,49.731 128.582,50.314 Q129.127,50.897 129.127,51.999 z M126.701,54.091 Q127.41,54.091 127.727,53.631 Q128.043,53.171 128.043,52.11 Q128.043,51.149 127.742,50.722 Q127.44,50.294 126.783,50.294 Q125.981,50.294 125.078,50.587 Q125.078,52.374 125.483,53.232 Q125.887,54.091 126.701,54.091 z" fill="#000000"/>
    <path d="M135.028,50.476 Q135.028,54.554 132.45,54.554 Q131.207,54.554 130.575,53.511 Q129.942,52.468 129.942,50.476 Q129.942,48.524 130.575,47.49 Q131.207,46.456 132.496,46.456 Q133.739,46.456 134.383,47.478 Q135.028,48.501 135.028,50.476 z M133.95,50.476 Q133.95,48.589 133.592,47.757 Q133.235,46.925 132.45,46.925 Q131.688,46.925 131.354,47.71 Q131.02,48.495 131.02,50.476 Q131.02,52.468 131.36,53.279 Q131.7,54.091 132.45,54.091 Q133.223,54.091 133.586,53.238 Q133.95,52.386 133.95,50.476 z" fill="#000000"/>
    <path d="M141.028,50.476 Q141.028,54.554 138.45,54.554 Q137.207,54.554 136.575,53.511 Q135.942,52.468 135.942,50.476 Q135.942,48.524 136.575,47.49 Q137.207,46.456 138.496,46.456 Q139.739,46.456 140.383,47.478 Q141.028,48.501 141.028,50.476 z M139.95,50.476 Q139.95,48.589 139.592,47.757 Q139.235,46.925 138.45,46.925 Q137.688,46.925 137.354,47.71 Q137.02,48.495 137.02,50.476 Q137.02,52.468 137.36,53.279 Q137.7,54.091 138.45,54.091 Q139.223,54.091 139.586,53.238 Q139.95,52.386 139.95,50.476 z" fill="#000000"/>
  </g>
</svg>
